<svg width="2560" height="1440" viewBox="0 0 2560 1440" fill="none" xmlns="http://www.w3.org/2000/svg">
    <g clip-path="url(#clip0_10_5590)">
        <rect width="2560" height="1440" fill="#1B1E26"/>
        <path opacity="0.1" d="M2439 75H2560V669C2502.98 618.065 2468.34 546.703 2463.59 470.393L2439 75Z" fill="#D9D9D9"/>
        <path d="M2276.5 6C2276.5 95.194 2193 247 2109 167.5C2000 76 1830.5 198 1797.5 93.5C1531.5 -22 2016.49 -155.5 2109 -155.5C2201.51 -155.5 2276.5 -83.194 2276.5 6Z" fill="#D9D9D9"/>
        <path d="M1293.78 1289.99C1438.22 1319.23 1120.63 1401.43 1021.45 1427.11C922.275 1452.78 826.391 1413.78 807.292 1340C788.193 1266.21 785.693 1122.87 952.291 1159.91C1133.69 1200.24 1787.89 1061.89 1293.78 1289.99Z" fill="#D9D9D9" fill-opacity="0.15"/>
        <path d="M2678 92.5C2678 255.148 2616 557.614 2486 455.5C2327.5 331 2209 321 2171 92.5C1849.5 16 2284.5 -202 2424.5 -202C2564.5 -202 2678 -70.1479 2678 92.5Z" fill="#D9D9D9"/>
        <path d="M398.5 148.5C363.5 218.5 186.5 112.5 126.5 191C74 285 20 77.5 -127 69.5C-127 2.3974 -13.5042 -52 126.5 -52C266.504 -52 300.5 118.5 398.5 148.5Z" fill="#D9D9D9"/>
        <path d="M2614.5 1410C2614.5 1499.19 2539.51 1571.5 2447 1571.5C2354.49 1571.5 2107 1547.69 2107 1458.5C2041 1361 2303.5 1202 2447 1248.5C2573 1164.5 2614.5 1320.81 2614.5 1410Z" fill="#D9D9D9"/>
        <path d="M2301.62 790.098C2301.62 866.313 2125.57 881.098 2023.12 881.098C1920.67 881.098 1592.62 824.098 1792.12 719.098C1695.12 648.598 1897.12 673.682 1999.62 648.598C2118.12 619.598 2301.62 735.098 2301.62 790.098Z" fill="#D9D9D9" fill-opacity="0.1"/>
        <path d="M2267 534.951C2553.75 670.688 1949 761.451 1818 761.451C1665.85 761.451 1426.5 689.951 1542.5 574.451C1668 574.451 1542.5 382.5 1781 445.5C2019.5 508.5 2023 419.451 2267 534.951Z" fill="#D9D9D9" fill-opacity="0.05"/>
        <path d="M868 162.5C868 200.055 823.005 230.5 767.5 230.5C702 263 502 248 667 162.5C667 124.945 694.5 94.5 767.5 94.5C823.005 94.5 928 131 868 162.5Z" fill="#D9D9D9" fill-opacity="0.08"/>
        <path d="M1756.7 1401.26C1727.97 1402.68 1701.24 1416.41 1683.35 1438.93L1682.5 1440L2449 1440L2449 1367L1756.7 1401.26Z" fill="#D9D9D9" fill-opacity="0.5"/>
        <path d="M2099.75 1310C2066.19 1310 2034.86 1326.84 2016.35 1354.83L1960 1440L2678 1440L2678 1310L2099.75 1310Z" fill="#D9D9D9" fill-opacity="0.5"/>
        <path d="M519 420C721.5 440 286 781 135 654.5C-66.9999 833.5 -67 595.468 -67 440C-67 284.532 111.051 319.5 213.5 319.5C315.949 319.5 681 277 519 420Z" fill="#D9D9D9" fill-opacity="0.1"/>
    </g>
    <defs>
        <clipPath id="clip0_10_5590">
            <rect width="2560" height="1440" fill="white"/>
        </clipPath>
    </defs>
</svg>
