<svg width="100" height="100" viewBox="0 0 100 100" fill="none" xmlns="http://www.w3.org/2000/svg">
    <path d="M35.4167 79.1668H33.3334C16.6667 79.1668 8.33337 75.0002 8.33337 54.1668V33.3335C8.33337 16.6668 16.6667 8.3335 33.3334 8.3335H66.6667C83.3334 8.3335 91.6667 16.6668 91.6667 33.3335V54.1668C91.6667 70.8335 83.3334 79.1668 66.6667 79.1668H64.5834C63.2917 79.1668 62.0417 79.7918 61.25 80.8335L55 89.1668C52.25 92.8335 47.75 92.8335 45 89.1668L38.75 80.8335C38.0834 79.9168 36.5417 79.1668 35.4167 79.1668Z" stroke="white" stroke-width="5" stroke-miterlimit="10" stroke-linecap="round" stroke-linejoin="round"/>
    <path d="M29.1666 33.3335H70.8333" stroke="white" stroke-width="5" stroke-linecap="round" stroke-linejoin="round"/>
    <path d="M29.1666 54.1665H54.1666" stroke="white" stroke-width="5" stroke-linecap="round" stroke-linejoin="round"/>
</svg>
