<svg width="350" height="350" viewBox="0 0 350 350" fill="none" xmlns="http://www.w3.org/2000/svg">
    <rect width="350" height="350" rx="2" fill="#1C1C1C"/>
    <rect y="200.601" width="350" height="29.0393" fill="#414141"/>
    <rect width="350" height="29.0393" fill="#414141"/>
    <path d="M87.4936 87.0469H46.2399C42.3234 87.0469 40.7568 88.402 40.7568 91.7688V100.323C40.7568 103.69 42.3234 105.045 46.2399 105.045H87.4936C91.41 105.045 92.9766 103.69 92.9766 100.323V91.7688C92.9766 88.402 91.41 87.0469 87.4936 87.0469Z" stroke="white" stroke-width="1.5" stroke-linecap="round" stroke-linejoin="round"/>
    <path d="M87.4936 62.6963H46.2399C42.3234 62.6963 40.7568 64.0515 40.7568 67.4182V75.9727C40.7568 79.3394 42.3234 80.6946 46.2399 80.6946H87.4936C91.41 80.6946 92.9766 79.3394 92.9766 75.9727V67.4182C92.9766 64.0515 91.41 62.6963 87.4936 62.6963Z" stroke="white" stroke-width="1.5" stroke-linecap="round" stroke-linejoin="round"/>
    <path d="M87.4936 160.409H46.2399C42.3234 160.409 40.7568 161.764 40.7568 165.131V173.686C40.7568 177.052 42.3234 178.407 46.2399 178.407H87.4936C91.41 178.407 92.9766 177.052 92.9766 173.686V165.131C92.9766 161.764 91.41 160.409 87.4936 160.409Z" stroke="white" stroke-width="1.5" stroke-linecap="round" stroke-linejoin="round"/>
    <path d="M87.4936 136.059H46.2399C42.3234 136.059 40.7568 137.414 40.7568 140.781V149.335C40.7568 152.702 42.3234 154.057 46.2399 154.057H87.4936C91.41 154.057 92.9766 152.702 92.9766 149.335V140.781C92.9766 137.414 91.41 136.059 87.4936 136.059Z" stroke="white" stroke-width="1.5" stroke-linecap="round" stroke-linejoin="round"/>
    <path d="M176.904 124.492H135.65C131.734 124.492 130.167 125.847 130.167 129.214V137.769C130.167 141.135 131.734 142.491 135.65 142.491H176.904C180.82 142.491 182.387 141.135 182.387 137.769V129.214C182.387 125.847 180.82 124.492 176.904 124.492Z" stroke="white" stroke-width="1.5" stroke-linecap="round" stroke-linejoin="round"/>
    <path d="M176.904 100.142H135.65C131.734 100.142 130.167 101.497 130.167 104.864V113.418C130.167 116.785 131.734 118.14 135.65 118.14H176.904C180.82 118.14 182.387 116.785 182.387 113.418V104.864C182.387 101.497 180.82 100.142 176.904 100.142Z" stroke="white" stroke-width="1.5" stroke-linecap="round" stroke-linejoin="round"/>
    <path d="M267.079 167.287H225.825C221.909 167.287 220.342 168.642 220.342 172.009V180.564C220.342 183.93 221.909 185.285 225.825 185.285H267.079C270.995 185.285 272.562 183.93 272.562 180.564V172.009C272.562 168.642 270.995 167.287 267.079 167.287Z" stroke="white" stroke-width="1.5" stroke-linecap="round" stroke-linejoin="round"/>
    <path d="M267.079 142.937H225.825C221.909 142.937 220.342 144.292 220.342 147.658V156.213C220.342 159.58 221.909 160.935 225.825 160.935H267.079C270.995 160.935 272.562 159.58 272.562 156.213V147.658C272.562 144.292 270.995 142.937 267.079 142.937Z" stroke="white" stroke-width="1.5" stroke-linecap="round" stroke-linejoin="round"/>
    <line x1="98.5808" y1="83.5615" x2="111.381" y2="83.5615" stroke="white"/>
    <line x1="111.381" y1="121.058" x2="124.181" y2="121.058" stroke="white"/>
    <line x1="98.5808" y1="156.924" x2="111.381" y2="156.924" stroke="white"/>
    <line x1="111.69" y1="84.0615" x2="111.69" y2="157.424" stroke="white"/>
    <path d="M87.4936 269.307H46.2399C42.3234 269.307 40.7568 270.662 40.7568 274.029V282.583C40.7568 285.95 42.3234 287.305 46.2399 287.305H87.4936C91.41 287.305 92.9766 285.95 92.9766 282.583V274.029C92.9766 270.662 91.41 269.307 87.4936 269.307Z" stroke="white" stroke-width="1.5" stroke-linecap="round" stroke-linejoin="round"/>
    <path d="M87.4936 244.956H46.2399C42.3234 244.956 40.7568 246.311 40.7568 249.678V258.232C40.7568 261.599 42.3234 262.954 46.2399 262.954H87.4936C91.41 262.954 92.9766 261.599 92.9766 258.232V249.678C92.9766 246.311 91.41 244.956 87.4936 244.956Z" stroke="white" stroke-width="1.5" stroke-linecap="round" stroke-linejoin="round"/>
    <path d="M176.904 269.307H135.65C131.734 269.307 130.167 270.662 130.167 274.029V282.583C130.167 285.95 131.734 287.305 135.65 287.305H176.904C180.82 287.305 182.387 285.95 182.387 282.583V274.029C182.387 270.662 180.82 269.307 176.904 269.307Z" stroke="white" stroke-width="1.5" stroke-linecap="round" stroke-linejoin="round"/>
    <path d="M176.904 244.956H135.65C131.734 244.956 130.167 246.311 130.167 249.678V258.232C130.167 261.599 131.734 262.954 135.65 262.954H176.904C180.82 262.954 182.387 261.599 182.387 258.232V249.678C182.387 246.311 180.82 244.956 176.904 244.956Z" stroke="white" stroke-width="1.5" stroke-linecap="round" stroke-linejoin="round"/>
    <line x1="188.557" y1="121.007" x2="201.357" y2="121.007" stroke="white"/>
    <line x1="201.357" y1="164.753" x2="214.157" y2="164.753" stroke="white"/>
    <line x1="201.865" y1="121.507" x2="201.865" y2="266.321" stroke="white"/>
    <line x1="188.756" y1="265.821" x2="201.556" y2="265.821" stroke="white"/>
    <line x1="98.5808" y1="265.821" x2="124.563" y2="265.821" stroke="white"/>
    <path d="M18.7273 23H14.2912V9.90909H18.8168C20.1165 9.90909 21.233 10.1712 22.1662 10.6953C23.1037 11.2152 23.8239 11.9631 24.3267 12.9389C24.8295 13.9148 25.081 15.0824 25.081 16.4418C25.081 17.8054 24.8274 18.9773 24.3203 19.9574C23.8175 20.9375 23.0909 21.6896 22.1406 22.2138C21.1946 22.7379 20.0568 23 18.7273 23ZM16.6626 20.9482H18.6122C19.5241 20.9482 20.2848 20.782 20.8942 20.4496C21.5036 20.1129 21.9616 19.6122 22.2685 18.9474C22.5753 18.2784 22.7287 17.4432 22.7287 16.4418C22.7287 15.4403 22.5753 14.6094 22.2685 13.9489C21.9616 13.2841 21.5078 12.7876 20.907 12.4595C20.3104 12.1271 19.5689 11.9609 18.6825 11.9609H16.6626V20.9482ZM31.5146 23.1918C30.5558 23.1918 29.7248 22.9808 29.0217 22.5589C28.3185 22.1371 27.7731 21.5469 27.3853 20.7884C27.0018 20.0298 26.81 19.1435 26.81 18.1293C26.81 17.1151 27.0018 16.2266 27.3853 15.4638C27.7731 14.701 28.3185 14.1087 29.0217 13.6868C29.7248 13.2649 30.5558 13.054 31.5146 13.054C32.4734 13.054 33.3043 13.2649 34.0075 13.6868C34.7106 14.1087 35.2539 14.701 35.6374 15.4638C36.0252 16.2266 36.2191 17.1151 36.2191 18.1293C36.2191 19.1435 36.0252 20.0298 35.6374 20.7884C35.2539 21.5469 34.7106 22.1371 34.0075 22.5589C33.3043 22.9808 32.4734 23.1918 31.5146 23.1918ZM31.5273 21.3381C32.0472 21.3381 32.4819 21.1953 32.8313 20.9098C33.1808 20.62 33.4407 20.2322 33.6112 19.7464C33.7859 19.2607 33.8732 18.7195 33.8732 18.1229C33.8732 17.522 33.7859 16.9787 33.6112 16.4929C33.4407 16.0028 33.1808 15.6129 32.8313 15.3232C32.4819 15.0334 32.0472 14.8885 31.5273 14.8885C30.9947 14.8885 30.5515 15.0334 30.1978 15.3232C29.8484 15.6129 29.5863 16.0028 29.4116 16.4929C29.2411 16.9787 29.1559 17.522 29.1559 18.1229C29.1559 18.7195 29.2411 19.2607 29.4116 19.7464C29.5863 20.2322 29.8484 20.62 30.1978 20.9098C30.5515 21.1953 30.9947 21.3381 31.5273 21.3381ZM44.4409 18.8707V13.1818H46.7548V23H44.5112V21.255H44.4089C44.1873 21.8047 43.823 22.2543 43.3159 22.6037C42.813 22.9531 42.193 23.1278 41.4558 23.1278C40.8123 23.1278 40.2434 22.9851 39.7491 22.6996C39.2591 22.4098 38.8755 21.9901 38.5985 21.4403C38.3216 20.8864 38.1831 20.2173 38.1831 19.4332V13.1818H40.497V19.0753C40.497 19.6974 40.6674 20.1918 41.0083 20.5582C41.3493 20.9247 41.7967 21.108 42.3507 21.108C42.6916 21.108 43.0218 21.0249 43.3414 20.8587C43.661 20.6925 43.9231 20.4453 44.1277 20.1172C44.3365 19.7848 44.4409 19.3693 44.4409 18.8707ZM49.2365 23V9.90909H51.5504V14.8054H51.6463C51.7656 14.5668 51.9339 14.3132 52.1513 14.0447C52.3686 13.772 52.6626 13.5398 53.0334 13.348C53.4041 13.152 53.8771 13.054 54.4524 13.054C55.2109 13.054 55.8949 13.2479 56.5043 13.6357C57.1179 14.0192 57.6037 14.5881 57.9616 15.3423C58.3239 16.0923 58.505 17.0128 58.505 18.1037C58.505 19.1818 58.3281 20.098 57.9744 20.8523C57.6207 21.6065 57.1392 22.1818 56.5298 22.5781C55.9205 22.9744 55.2301 23.1726 54.4588 23.1726C53.8963 23.1726 53.4297 23.0788 53.0589 22.8913C52.6882 22.7038 52.3899 22.478 52.1641 22.2138C51.9425 21.9453 51.7699 21.6918 51.6463 21.4531H51.5121V23H49.2365ZM51.5057 18.0909C51.5057 18.7259 51.5952 19.282 51.7741 19.7592C51.9574 20.2365 52.2195 20.6094 52.5604 20.8778C52.9055 21.142 53.3232 21.2741 53.8132 21.2741C54.3246 21.2741 54.7528 21.1378 55.098 20.8651C55.4432 20.5881 55.7031 20.2109 55.8778 19.7337C56.0568 19.2521 56.1463 18.7045 56.1463 18.0909C56.1463 17.4815 56.0589 16.9403 55.8842 16.4673C55.7095 15.9943 55.4496 15.6236 55.1044 15.3551C54.7592 15.0866 54.3288 14.9524 53.8132 14.9524C53.3189 14.9524 52.8991 15.0824 52.554 15.3423C52.2088 15.6023 51.9467 15.9666 51.7678 16.4354C51.593 16.9041 51.5057 17.456 51.5057 18.0909ZM62.786 9.90909V23H60.4721V9.90909H62.786ZM69.5121 23.1918C68.5277 23.1918 67.6776 22.9872 66.9616 22.5781C66.25 22.1648 65.7024 21.581 65.3189 20.8267C64.9354 20.0682 64.7436 19.1754 64.7436 18.1484C64.7436 17.1385 64.9354 16.2521 65.3189 15.4893C65.7067 14.7223 66.2479 14.1257 66.9425 13.6996C67.6371 13.2692 68.4531 13.054 69.3906 13.054C69.9957 13.054 70.5668 13.152 71.1037 13.348C71.6449 13.5398 72.1222 13.8381 72.5355 14.2429C72.9531 14.6477 73.2813 15.1634 73.5199 15.7898C73.7585 16.4119 73.8778 17.1534 73.8778 18.0142V18.7237H65.8303V17.1641H71.6598C71.6555 16.7209 71.5597 16.3267 71.3722 15.9815C71.1847 15.6321 70.9226 15.3572 70.5859 15.157C70.2536 14.9567 69.8658 14.8565 69.4226 14.8565C68.9496 14.8565 68.5341 14.9716 68.1761 15.2017C67.8182 15.4276 67.5391 15.7259 67.3388 16.0966C67.1428 16.4631 67.0426 16.8658 67.0384 17.3047V18.6662C67.0384 19.2372 67.1428 19.7273 67.3516 20.1364C67.5604 20.5412 67.8523 20.8523 68.2273 21.0696C68.6023 21.2827 69.0412 21.3892 69.544 21.3892C69.8807 21.3892 70.1854 21.3423 70.4581 21.2486C70.7308 21.1506 70.9673 21.0078 71.1676 20.8203C71.3679 20.6328 71.5192 20.4006 71.6214 20.1236L73.782 20.3665C73.6456 20.9375 73.3857 21.4361 73.0021 21.8622C72.6229 22.2841 72.1371 22.6122 71.5447 22.8466C70.9524 23.0767 70.2749 23.1918 69.5121 23.1918ZM84.6468 23.1918C83.6625 23.1918 82.8123 22.9872 82.0964 22.5781C81.3848 22.1648 80.8372 21.581 80.4537 20.8267C80.0701 20.0682 79.8784 19.1754 79.8784 18.1484C79.8784 17.1385 80.0701 16.2521 80.4537 15.4893C80.8414 14.7223 81.3826 14.1257 82.0772 13.6996C82.7718 13.2692 83.5879 13.054 84.5254 13.054C85.1305 13.054 85.7015 13.152 86.2385 13.348C86.7797 13.5398 87.2569 13.8381 87.6703 14.2429C88.0879 14.6477 88.416 15.1634 88.6547 15.7898C88.8933 16.4119 89.0126 17.1534 89.0126 18.0142V18.7237H80.965V17.1641H86.7946C86.7903 16.7209 86.6944 16.3267 86.5069 15.9815C86.3194 15.6321 86.0574 15.3572 85.7207 15.157C85.3883 14.9567 85.0005 14.8565 84.5574 14.8565C84.0843 14.8565 83.6689 14.9716 83.3109 15.2017C82.9529 15.4276 82.6738 15.7259 82.4735 16.0966C82.2775 16.4631 82.1774 16.8658 82.1731 17.3047V18.6662C82.1731 19.2372 82.2775 19.7273 82.4863 20.1364C82.6951 20.5412 82.987 20.8523 83.362 21.0696C83.737 21.2827 84.176 21.3892 84.6788 21.3892C85.0154 21.3892 85.3201 21.3423 85.5929 21.2486C85.8656 21.1506 86.1021 21.0078 86.3024 20.8203C86.5027 20.6328 86.6539 20.4006 86.7562 20.1236L88.9167 20.3665C88.7804 20.9375 88.5204 21.4361 88.1369 21.8622C87.7576 22.2841 87.2718 22.6122 86.6795 22.8466C86.0872 23.0767 85.4096 23.1918 84.6468 23.1918ZM93.2841 9.90909V23H90.9702V9.90909H93.2841ZM95.6635 23V13.1818H97.9775V23H95.6635ZM96.8269 11.7884C96.4604 11.7884 96.1451 11.6669 95.8809 11.424C95.6167 11.1768 95.4846 10.8807 95.4846 10.5355C95.4846 10.1861 95.6167 9.88991 95.8809 9.64702C96.1451 9.39986 96.4604 9.27628 96.8269 9.27628C97.1976 9.27628 97.513 9.39986 97.7729 9.64702C98.0371 9.88991 98.1692 10.1861 98.1692 10.5355C98.1692 10.8807 98.0371 11.1768 97.7729 11.424C97.513 11.6669 97.1976 11.7884 96.8269 11.7884ZM100.357 23V13.1818H102.569V14.8501H102.684C102.888 14.2876 103.227 13.8487 103.7 13.5334C104.173 13.2138 104.738 13.054 105.394 13.054C106.059 13.054 106.619 13.2159 107.075 13.5398C107.535 13.8594 107.859 14.2962 108.047 14.8501H108.149C108.366 14.3047 108.733 13.87 109.248 13.5462C109.768 13.218 110.384 13.054 111.096 13.054C111.999 13.054 112.736 13.3395 113.307 13.9105C113.878 14.4815 114.164 15.3146 114.164 16.4098V23H111.843V16.7678C111.843 16.1584 111.681 15.7131 111.358 15.4318C111.034 15.1463 110.637 15.0036 110.169 15.0036C109.61 15.0036 109.174 15.1783 108.858 15.5277C108.547 15.8729 108.392 16.3224 108.392 16.8764V23H106.123V16.6719C106.123 16.1648 105.969 15.7599 105.662 15.4574C105.36 15.1548 104.963 15.0036 104.473 15.0036C104.141 15.0036 103.838 15.0888 103.566 15.2592C103.293 15.4254 103.076 15.6619 102.914 15.9688C102.752 16.2713 102.671 16.625 102.671 17.0298V23H100.357ZM116.511 23V13.1818H118.825V23H116.511ZM117.675 11.7884C117.308 11.7884 116.993 11.6669 116.729 11.424C116.464 11.1768 116.332 10.8807 116.332 10.5355C116.332 10.1861 116.464 9.88991 116.729 9.64702C116.993 9.39986 117.308 9.27628 117.675 9.27628C118.045 9.27628 118.361 9.39986 118.621 9.64702C118.885 9.88991 119.017 10.1861 119.017 10.5355C119.017 10.8807 118.885 11.1768 118.621 11.424C118.361 11.6669 118.045 11.7884 117.675 11.7884ZM123.518 17.2472V23H121.205V13.1818H123.416V14.8501H123.531C123.757 14.3004 124.117 13.8636 124.612 13.5398C125.11 13.2159 125.726 13.054 126.459 13.054C127.136 13.054 127.727 13.1989 128.229 13.4886C128.737 13.7784 129.129 14.1982 129.406 14.7479C129.687 15.2976 129.825 15.9645 129.821 16.7486V23H127.507V17.1065C127.507 16.4503 127.337 15.9368 126.996 15.5661C126.659 15.1953 126.192 15.0099 125.596 15.0099C125.191 15.0099 124.831 15.0994 124.516 15.2784C124.205 15.4531 123.96 15.7067 123.781 16.0391C123.606 16.3714 123.518 16.7741 123.518 17.2472ZM134.999 23.1982C134.376 23.1982 133.816 23.0874 133.317 22.8658C132.823 22.6399 132.431 22.3075 132.141 21.8686C131.856 21.4297 131.713 20.8885 131.713 20.245C131.713 19.6911 131.815 19.233 132.02 18.8707C132.224 18.5085 132.504 18.2188 132.857 18.0014C133.211 17.7841 133.609 17.62 134.053 17.5092C134.5 17.3942 134.962 17.3111 135.44 17.2599C136.015 17.2003 136.482 17.147 136.839 17.1001C137.197 17.049 137.457 16.9723 137.619 16.87C137.786 16.7635 137.869 16.5994 137.869 16.3778V16.3395C137.869 15.858 137.726 15.4851 137.44 15.2209C137.155 14.9567 136.744 14.8246 136.207 14.8246C135.64 14.8246 135.19 14.9482 134.858 15.1953C134.53 15.4425 134.308 15.7344 134.193 16.071L132.033 15.7642C132.203 15.1676 132.484 14.669 132.876 14.2685C133.268 13.8636 133.748 13.5611 134.315 13.3608C134.881 13.1562 135.508 13.054 136.194 13.054C136.667 13.054 137.138 13.1094 137.607 13.2202C138.075 13.331 138.504 13.5142 138.891 13.7699C139.279 14.0213 139.59 14.3643 139.825 14.799C140.063 15.2337 140.183 15.777 140.183 16.429V23H137.958V21.6513H137.881C137.741 21.924 137.543 22.1797 137.287 22.4183C137.036 22.6527 136.718 22.8423 136.335 22.9872C135.955 23.1278 135.51 23.1982 134.999 23.1982ZM135.599 21.4979C136.064 21.4979 136.467 21.4062 136.808 21.223C137.148 21.0355 137.411 20.7884 137.594 20.4815C137.781 20.1747 137.875 19.8402 137.875 19.478V18.321C137.803 18.3807 137.679 18.4361 137.504 18.4872C137.334 18.5384 137.142 18.5831 136.929 18.6214C136.716 18.6598 136.505 18.6939 136.296 18.7237C136.087 18.7536 135.906 18.7791 135.753 18.8004C135.408 18.8473 135.099 18.924 134.826 19.0305C134.553 19.1371 134.338 19.2862 134.18 19.478C134.023 19.6655 133.944 19.9084 133.944 20.2067C133.944 20.6328 134.099 20.9545 134.411 21.1719C134.722 21.3892 135.118 21.4979 135.599 21.4979ZM147.412 13.1818V14.9716H141.768V13.1818H147.412ZM143.161 10.8295H145.475V20.0469C145.475 20.358 145.522 20.5966 145.616 20.7628C145.714 20.9247 145.842 21.0355 145.999 21.0952C146.157 21.1548 146.332 21.1847 146.523 21.1847C146.668 21.1847 146.8 21.174 146.92 21.1527C147.043 21.1314 147.137 21.1122 147.201 21.0952L147.591 22.9041C147.467 22.9467 147.29 22.9936 147.06 23.0447C146.835 23.0959 146.558 23.1257 146.229 23.1342C145.65 23.1513 145.128 23.0639 144.663 22.8722C144.199 22.6761 143.83 22.3736 143.558 21.9645C143.289 21.5554 143.157 21.044 143.161 20.4304V10.8295ZM149.347 23V13.1818H151.661V23H149.347ZM150.51 11.7884C150.144 11.7884 149.829 11.6669 149.564 11.424C149.3 11.1768 149.168 10.8807 149.168 10.5355C149.168 10.1861 149.3 9.88991 149.564 9.64702C149.829 9.39986 150.144 9.27628 150.51 9.27628C150.881 9.27628 151.197 9.39986 151.456 9.64702C151.721 9.88991 151.853 10.1861 151.853 10.5355C151.853 10.8807 151.721 11.1768 151.456 11.424C151.197 11.6669 150.881 11.7884 150.51 11.7884ZM158.323 23.1918C157.364 23.1918 156.533 22.9808 155.83 22.5589C155.127 22.1371 154.582 21.5469 154.194 20.7884C153.81 20.0298 153.619 19.1435 153.619 18.1293C153.619 17.1151 153.81 16.2266 154.194 15.4638C154.582 14.701 155.127 14.1087 155.83 13.6868C156.533 13.2649 157.364 13.054 158.323 13.054C159.282 13.054 160.113 13.2649 160.816 13.6868C161.519 14.1087 162.063 14.701 162.446 15.4638C162.834 16.2266 163.028 17.1151 163.028 18.1293C163.028 19.1435 162.834 20.0298 162.446 20.7884C162.063 21.5469 161.519 22.1371 160.816 22.5589C160.113 22.9808 159.282 23.1918 158.323 23.1918ZM158.336 21.3381C158.856 21.3381 159.29 21.1953 159.64 20.9098C159.989 20.62 160.249 20.2322 160.42 19.7464C160.594 19.2607 160.682 18.7195 160.682 18.1229C160.682 17.522 160.594 16.9787 160.42 16.4929C160.249 16.0028 159.989 15.6129 159.64 15.3232C159.29 15.0334 158.856 14.8885 158.336 14.8885C157.803 14.8885 157.36 15.0334 157.006 15.3232C156.657 15.6129 156.395 16.0028 156.22 16.4929C156.05 16.9787 155.964 17.522 155.964 18.1229C155.964 18.7195 156.05 19.2607 156.22 19.7464C156.395 20.2322 156.657 20.62 157.006 20.9098C157.36 21.1953 157.803 21.3381 158.336 21.3381ZM167.306 17.2472V23H164.992V13.1818H167.203V14.8501H167.318C167.544 14.3004 167.904 13.8636 168.399 13.5398C168.897 13.2159 169.513 13.054 170.246 13.054C170.923 13.054 171.514 13.1989 172.017 13.4886C172.524 13.7784 172.916 14.1982 173.193 14.7479C173.474 15.2976 173.612 15.9645 173.608 16.7486V23H171.294V17.1065C171.294 16.4503 171.124 15.9368 170.783 15.5661C170.446 15.1953 169.98 15.0099 169.383 15.0099C168.978 15.0099 168.618 15.0994 168.303 15.2784C167.992 15.4531 167.747 15.7067 167.568 16.0391C167.393 16.3714 167.306 16.7741 167.306 17.2472Z" fill="white"/>
    <path d="M9.00426 216V205.818H10.8487V214.454H15.3331V216H9.00426ZM20.1854 216.149C19.4396 216.149 18.7933 215.985 18.2464 215.657C17.6996 215.329 17.2753 214.87 16.9737 214.28C16.6754 213.69 16.5263 213 16.5263 212.212C16.5263 211.423 16.6754 210.732 16.9737 210.138C17.2753 209.545 17.6996 209.085 18.2464 208.756C18.7933 208.428 19.4396 208.264 20.1854 208.264C20.9311 208.264 21.5774 208.428 22.1243 208.756C22.6712 209.085 23.0938 209.545 23.392 210.138C23.6937 210.732 23.8445 211.423 23.8445 212.212C23.8445 213 23.6937 213.69 23.392 214.28C23.0938 214.87 22.6712 215.329 22.1243 215.657C21.5774 215.985 20.9311 216.149 20.1854 216.149ZM20.1953 214.707C20.5997 214.707 20.9377 214.596 21.2095 214.374C21.4813 214.149 21.6835 213.847 21.8161 213.469C21.9519 213.092 22.0199 212.671 22.0199 212.207C22.0199 211.739 21.9519 211.317 21.8161 210.939C21.6835 210.558 21.4813 210.254 21.2095 210.029C20.9377 209.804 20.5997 209.691 20.1953 209.691C19.781 209.691 19.4363 209.804 19.1612 210.029C18.8894 210.254 18.6856 210.558 18.5497 210.939C18.4171 211.317 18.3509 211.739 18.3509 212.207C18.3509 212.671 18.4171 213.092 18.5497 213.469C18.6856 213.847 18.8894 214.149 19.1612 214.374C19.4363 214.596 19.781 214.707 20.1953 214.707ZM31.4075 210.382L29.7669 210.561C29.7205 210.395 29.6393 210.24 29.5233 210.094C29.4106 209.948 29.2581 209.83 29.0659 209.741C28.8736 209.651 28.6383 209.607 28.3599 209.607C27.9854 209.607 27.6705 209.688 27.4153 209.85C27.1634 210.013 27.0391 210.223 27.0424 210.482C27.0391 210.704 27.1203 210.884 27.286 211.023C27.4551 211.163 27.7335 211.277 28.1213 211.366L29.4238 211.645C30.1464 211.801 30.6833 212.048 31.0346 212.386C31.3893 212.724 31.5682 213.166 31.5716 213.713C31.5682 214.194 31.4274 214.618 31.149 214.986C30.8739 215.35 30.4911 215.635 30.0005 215.841C29.51 216.046 28.9466 216.149 28.3102 216.149C27.3755 216.149 26.6232 215.954 26.0531 215.562C25.483 215.168 25.1433 214.62 25.0339 213.917L26.7889 213.748C26.8684 214.093 27.0375 214.353 27.296 214.528C27.5545 214.704 27.8909 214.792 28.3052 214.792C28.7328 214.792 29.0758 214.704 29.3343 214.528C29.5962 214.353 29.7271 214.136 29.7271 213.877C29.7271 213.658 29.6426 213.478 29.4735 213.335C29.3078 213.193 29.0493 213.083 28.698 213.007L27.3954 212.734C26.6629 212.581 26.121 212.324 25.7697 211.963C25.4184 211.598 25.2444 211.138 25.2477 210.581C25.2444 210.11 25.372 209.703 25.6305 209.358C25.8923 209.01 26.2553 208.741 26.7193 208.553C27.1866 208.36 27.7252 208.264 28.335 208.264C29.2299 208.264 29.9342 208.455 30.448 208.836C30.965 209.217 31.2849 209.732 31.4075 210.382ZM36.4363 216.149C35.6706 216.149 35.0094 215.99 34.4526 215.672C33.8991 215.35 33.4732 214.896 33.1749 214.31C32.8766 213.72 32.7275 213.025 32.7275 212.227C32.7275 211.441 32.8766 210.752 33.1749 210.158C33.4765 209.562 33.8974 209.098 34.4377 208.766C34.9779 208.432 35.6126 208.264 36.3418 208.264C36.8124 208.264 37.2566 208.34 37.6742 208.493C38.0951 208.642 38.4663 208.874 38.7878 209.189C39.1126 209.504 39.3678 209.905 39.5534 210.392C39.7391 210.876 39.8319 211.453 39.8319 212.122V212.674H33.5726V211.461H38.1067C38.1034 211.116 38.0288 210.81 37.883 210.541C37.7372 210.269 37.5333 210.056 37.2715 209.9C37.013 209.744 36.7114 209.666 36.3667 209.666C35.9988 209.666 35.6756 209.756 35.3972 209.935C35.1188 210.11 34.9017 210.342 34.7459 210.631C34.5935 210.916 34.5156 211.229 34.5123 211.57V212.629C34.5123 213.073 34.5935 213.455 34.7559 213.773C34.9183 214.088 35.1453 214.33 35.437 214.499C35.7286 214.664 36.07 214.747 36.4611 214.747C36.723 214.747 36.9599 214.711 37.1721 214.638C37.3842 214.562 37.5681 214.451 37.7239 214.305C37.8797 214.159 37.9973 213.978 38.0769 213.763L39.7573 213.952C39.6512 214.396 39.449 214.784 39.1507 215.115C38.8558 215.443 38.4779 215.698 38.0172 215.881C37.5565 216.06 37.0295 216.149 36.4363 216.149ZM41.3544 216V208.364H43.0994V209.636H43.179C43.3182 209.196 43.5568 208.856 43.8949 208.617C44.2363 208.375 44.6257 208.254 45.0632 208.254C45.1626 208.254 45.2737 208.259 45.3963 208.269C45.5223 208.276 45.6267 208.287 45.7095 208.304V209.96C45.6333 209.933 45.5123 209.91 45.3466 209.89C45.1842 209.867 45.0268 209.855 44.8743 209.855C44.5462 209.855 44.2512 209.926 43.9893 210.069C43.7308 210.208 43.527 210.402 43.3778 210.651C43.2287 210.899 43.1541 211.186 43.1541 211.511V216H41.3544ZM48.6639 205.818V206.832C48.6639 207.124 48.6075 207.427 48.4949 207.742C48.3855 208.054 48.2347 208.352 48.0424 208.637C47.8502 208.919 47.6315 209.161 47.3862 209.363L46.551 208.821C46.7333 208.546 46.8923 208.249 47.0282 207.931C47.1641 207.61 47.2321 207.247 47.2321 206.842V205.818H48.6639ZM55.1692 210.382L53.5286 210.561C53.4822 210.395 53.401 210.24 53.285 210.094C53.1723 209.948 53.0198 209.83 52.8276 209.741C52.6354 209.651 52.4 209.607 52.1216 209.607C51.7471 209.607 51.4322 209.688 51.177 209.85C50.9251 210.013 50.8008 210.223 50.8042 210.482C50.8008 210.704 50.882 210.884 51.0478 211.023C51.2168 211.163 51.4952 211.277 51.883 211.366L53.1855 211.645C53.9081 211.801 54.445 212.048 54.7963 212.386C55.151 212.724 55.33 213.166 55.3333 213.713C55.33 214.194 55.1891 214.618 54.9107 214.986C54.6356 215.35 54.2528 215.635 53.7623 215.841C53.2717 216.046 52.7083 216.149 52.0719 216.149C51.1373 216.149 50.3849 215.954 49.8148 215.562C49.2447 215.168 48.905 214.62 48.7956 213.917L50.5506 213.748C50.6301 214.093 50.7992 214.353 51.0577 214.528C51.3162 214.704 51.6526 214.792 52.0669 214.792C52.4945 214.792 52.8375 214.704 53.0961 214.528C53.3579 214.353 53.4888 214.136 53.4888 213.877C53.4888 213.658 53.4043 213.478 53.2353 213.335C53.0695 213.193 52.811 213.083 52.4597 213.007L51.1571 212.734C50.4247 212.581 49.8828 212.324 49.5314 211.963C49.1801 211.598 49.0061 211.138 49.0094 210.581C49.0061 210.11 49.1337 209.703 49.3922 209.358C49.6541 209.01 50.017 208.741 50.481 208.553C50.9483 208.36 51.4869 208.264 52.0968 208.264C52.9917 208.264 53.696 208.455 54.2097 208.836C54.7267 209.217 55.0466 209.732 55.1692 210.382ZM60.3695 216V205.818H62.1692V209.626H62.2438C62.3366 209.441 62.4675 209.244 62.6365 209.035C62.8056 208.823 63.0343 208.642 63.3226 208.493C63.611 208.34 63.9789 208.264 64.4263 208.264C65.0163 208.264 65.5482 208.415 66.0222 208.717C66.4995 209.015 66.8773 209.457 67.1557 210.044C67.4374 210.627 67.5783 211.343 67.5783 212.192C67.5783 213.03 67.4408 213.743 67.1657 214.33C66.8906 214.916 66.516 215.364 66.0421 215.672C65.5681 215.98 65.0312 216.134 64.4313 216.134C63.9938 216.134 63.6309 216.061 63.3425 215.915C63.0542 215.77 62.8221 215.594 62.6465 215.388C62.4741 215.18 62.3399 214.982 62.2438 214.797H62.1394V216H60.3695ZM62.1344 212.182C62.1344 212.676 62.204 213.108 62.3432 213.479C62.4857 213.851 62.6896 214.141 62.9547 214.349C63.2232 214.555 63.548 214.658 63.9292 214.658C64.3269 214.658 64.66 214.552 64.9284 214.339C65.1969 214.124 65.3991 213.831 65.535 213.46C65.6742 213.085 65.7438 212.659 65.7438 212.182C65.7438 211.708 65.6758 211.287 65.54 210.919C65.4041 210.551 65.2019 210.263 64.9334 210.054C64.665 209.845 64.3302 209.741 63.9292 209.741C63.5447 209.741 63.2182 209.842 62.9498 210.044C62.6813 210.246 62.4775 210.53 62.3382 210.894C62.2024 211.259 62.1344 211.688 62.1344 212.182ZM69.1083 216V208.364H70.8533V209.636H70.9329C71.0721 209.196 71.3107 208.856 71.6488 208.617C71.9902 208.375 72.3796 208.254 72.8171 208.254C72.9165 208.254 73.0276 208.259 73.1502 208.269C73.2762 208.276 73.3806 208.287 73.4634 208.304V209.96C73.3872 209.933 73.2662 209.91 73.1005 209.89C72.9381 209.867 72.7807 209.855 72.6282 209.855C72.3001 209.855 72.0051 209.926 71.7433 210.069C71.4847 210.208 71.2809 210.402 71.1317 210.651C70.9826 210.899 70.908 211.186 70.908 211.511V216H69.1083ZM76.7198 216.154C76.2359 216.154 75.8001 216.068 75.4123 215.896C75.0278 215.72 74.7229 215.461 74.4975 215.12C74.2754 214.779 74.1644 214.358 74.1644 213.857C74.1644 213.426 74.244 213.07 74.4031 212.788C74.5621 212.507 74.7792 212.281 75.0543 212.112C75.3294 211.943 75.6393 211.816 75.984 211.729C76.332 211.64 76.6916 211.575 77.0629 211.536C77.5103 211.489 77.8732 211.448 78.1516 211.411C78.43 211.371 78.6322 211.312 78.7582 211.232C78.8874 211.149 78.9521 211.022 78.9521 210.849V210.82C78.9521 210.445 78.841 210.155 78.619 209.95C78.3969 209.744 78.0771 209.641 77.6594 209.641C77.2186 209.641 76.869 209.737 76.6104 209.93C76.3552 210.122 76.1829 210.349 76.0934 210.611L74.413 210.372C74.5456 209.908 74.7643 209.52 75.0692 209.209C75.3742 208.894 75.747 208.659 76.1879 208.503C76.6287 208.344 77.1159 208.264 77.6495 208.264C78.0174 208.264 78.3836 208.307 78.7482 208.393C79.1128 208.48 79.4459 208.622 79.7475 208.821C80.0491 209.017 80.2911 209.283 80.4734 209.621C80.659 209.96 80.7518 210.382 80.7518 210.889V216H79.0217V214.951H78.962C78.8526 215.163 78.6985 215.362 78.4996 215.548C78.3041 215.73 78.0572 215.877 77.7589 215.99C77.4639 216.099 77.1175 216.154 76.7198 216.154ZM77.1871 214.832C77.5484 214.832 77.8616 214.76 78.1268 214.618C78.3919 214.472 78.5958 214.28 78.7383 214.041C78.8841 213.803 78.957 213.542 78.957 213.261V212.361C78.9007 212.407 78.8046 212.45 78.6687 212.49C78.5361 212.53 78.387 212.565 78.2212 212.594C78.0555 212.624 77.8915 212.651 77.729 212.674C77.5666 212.697 77.4258 212.717 77.3065 212.734C77.038 212.77 76.7977 212.83 76.5856 212.913C76.3735 212.996 76.2061 213.112 76.0835 213.261C75.9608 213.406 75.8995 213.595 75.8995 213.827C75.8995 214.159 76.0205 214.409 76.2624 214.578C76.5044 214.747 76.8126 214.832 77.1871 214.832ZM85.8924 216.149C85.1301 216.149 84.4755 215.982 83.9286 215.647C83.3851 215.312 82.9658 214.85 82.6708 214.26C82.3791 213.667 82.2333 212.984 82.2333 212.212C82.2333 211.436 82.3825 210.752 82.6808 210.158C82.979 209.562 83.4 209.098 83.9435 208.766C84.4904 208.432 85.1367 208.264 85.8825 208.264C86.5022 208.264 87.0508 208.379 87.5281 208.607C88.0086 208.833 88.3915 209.152 88.6765 209.567C88.9615 209.978 89.1239 210.458 89.1637 211.009H87.4435C87.3739 210.641 87.2082 210.334 86.9464 210.089C86.6879 209.84 86.3415 209.716 85.9073 209.716C85.5394 209.716 85.2163 209.815 84.9379 210.014C84.6594 210.21 84.4424 210.491 84.2866 210.859C84.1341 211.227 84.0579 211.668 84.0579 212.182C84.0579 212.702 84.1341 213.15 84.2866 213.524C84.439 213.895 84.6528 214.182 84.9279 214.384C85.2063 214.583 85.5328 214.683 85.9073 214.683C86.1725 214.683 86.4094 214.633 86.6183 214.533C86.8304 214.431 87.0077 214.283 87.1502 214.091C87.2927 213.899 87.3905 213.665 87.4435 213.39H89.1637C89.1206 213.93 88.9615 214.409 88.6864 214.827C88.4113 215.241 88.0368 215.566 87.5629 215.801C87.0889 216.033 86.5321 216.149 85.8924 216.149ZM92.2821 213.604L92.2772 211.431H92.5655L95.3098 208.364H97.4128L94.0371 212.122H93.6642L92.2821 213.604ZM90.6415 216V205.818H92.4412V216H90.6415ZM95.4341 216L92.9483 212.525L94.1614 211.257L97.5868 216H95.4341ZM101.678 216.149C100.913 216.149 100.252 215.99 99.6948 215.672C99.1413 215.35 98.7154 214.896 98.4171 214.31C98.1188 213.72 97.9696 213.025 97.9696 212.227C97.9696 211.441 98.1188 210.752 98.4171 210.158C98.7187 209.562 99.1396 209.098 99.6799 208.766C100.22 208.432 100.855 208.264 101.584 208.264C102.055 208.264 102.499 208.34 102.916 208.493C103.337 208.642 103.709 208.874 104.03 209.189C104.355 209.504 104.61 209.905 104.796 210.392C104.981 210.876 105.074 211.453 105.074 212.122V212.674H98.8148V211.461H103.349C103.346 211.116 103.271 210.81 103.125 210.541C102.979 210.269 102.776 210.056 102.514 209.9C102.255 209.744 101.954 209.666 101.609 209.666C101.241 209.666 100.918 209.756 100.639 209.935C100.361 210.11 100.144 210.342 99.9881 210.631C99.8356 210.916 99.7578 211.229 99.7544 211.57V212.629C99.7544 213.073 99.8356 213.455 99.998 213.773C100.16 214.088 100.387 214.33 100.679 214.499C100.971 214.664 101.312 214.747 101.703 214.747C101.965 214.747 102.202 214.711 102.414 214.638C102.626 214.562 102.81 214.451 102.966 214.305C103.122 214.159 103.24 213.978 103.319 213.763L104.999 213.952C104.893 214.396 104.691 214.784 104.393 215.115C104.098 215.443 103.72 215.698 103.259 215.881C102.799 216.06 102.272 216.149 101.678 216.149ZM110.41 208.364V209.756H106.02V208.364H110.41ZM107.104 206.534H108.903V213.703C108.903 213.945 108.94 214.131 109.013 214.26C109.089 214.386 109.188 214.472 109.311 214.518C109.434 214.565 109.57 214.588 109.719 214.588C109.831 214.588 109.934 214.58 110.027 214.563C110.123 214.547 110.196 214.532 110.246 214.518L110.549 215.925C110.453 215.959 110.315 215.995 110.136 216.035C109.961 216.075 109.745 216.098 109.49 216.104C109.039 216.118 108.633 216.05 108.272 215.901C107.911 215.748 107.624 215.513 107.412 215.195C107.203 214.876 107.1 214.479 107.104 214.001V206.534Z" fill="white"/>
    <path d="M11.147 51L8.27344 40.8182H10.2571L12.0916 48.3004H12.1861L14.1449 40.8182H15.9496L17.9134 48.3054H18.0028L19.8374 40.8182H21.821L18.9474 51H17.1278L15.0895 43.8558H15.0099L12.9666 51H11.147ZM23.0204 51V43.3636H24.8201V51H23.0204ZM23.9252 42.2798C23.6402 42.2798 23.3949 42.1854 23.1895 41.9964C22.984 41.8042 22.8812 41.5739 22.8812 41.3054C22.8812 41.0336 22.984 40.8033 23.1895 40.6143C23.3949 40.4221 23.6402 40.326 23.9252 40.326C24.2136 40.326 24.4589 40.4221 24.661 40.6143C24.8665 40.8033 24.9693 41.0336 24.9693 41.3054C24.9693 41.5739 24.8665 41.8042 24.661 41.9964C24.4589 42.1854 24.2136 42.2798 23.9252 42.2798ZM28.4705 46.5256V51H26.6708V43.3636H28.391V44.6612H28.4805C28.6561 44.2337 28.9362 43.8939 29.3207 43.642C29.7085 43.3902 30.1874 43.2642 30.7575 43.2642C31.2844 43.2642 31.7435 43.3769 32.1346 43.6023C32.529 43.8277 32.8339 44.1541 33.0494 44.5817C33.2681 45.0092 33.3758 45.5279 33.3725 46.1378V51H31.5728V46.4162C31.5728 45.9058 31.4402 45.5064 31.1751 45.218C30.9132 44.9297 30.5503 44.7855 30.0863 44.7855C29.7714 44.7855 29.4914 44.8551 29.2461 44.9943C29.0041 45.1302 28.8136 45.3274 28.6744 45.5859C28.5385 45.8445 28.4705 46.1577 28.4705 46.5256ZM37.0018 46.5256V51H35.2021V43.3636H36.9222V44.6612H37.0117C37.1874 44.2337 37.4674 43.8939 37.8519 43.642C38.2397 43.3902 38.7186 43.2642 39.2887 43.2642C39.8157 43.2642 40.2747 43.3769 40.6658 43.6023C41.0603 43.8277 41.3652 44.1541 41.5806 44.5817C41.7994 45.0092 41.9071 45.5279 41.9038 46.1378V51H40.104V46.4162C40.104 45.9058 39.9715 45.5064 39.7063 45.218C39.4445 44.9297 39.0816 44.7855 38.6175 44.7855C38.3027 44.7855 38.0226 44.8551 37.7773 44.9943C37.5354 45.1302 37.3448 45.3274 37.2056 45.5859C37.0697 45.8445 37.0018 46.1577 37.0018 46.5256ZM47.114 51.1491C46.3484 51.1491 45.6871 50.9901 45.1303 50.6719C44.5768 50.3504 44.1509 49.8963 43.8526 49.3097C43.5543 48.7197 43.4052 48.0253 43.4052 47.2266C43.4052 46.4411 43.5543 45.7517 43.8526 45.1584C44.1542 44.5618 44.5752 44.0978 45.1154 43.7663C45.6557 43.4316 46.2904 43.2642 47.0195 43.2642C47.4902 43.2642 47.9343 43.3404 48.3519 43.4929C48.7728 43.642 49.1441 43.8741 49.4656 44.1889C49.7904 44.5038 50.0456 44.9048 50.2312 45.392C50.4168 45.8759 50.5096 46.4527 50.5096 47.1222V47.674H44.2504V46.4609H48.7844C48.7811 46.1162 48.7066 45.8097 48.5607 45.5412C48.4149 45.2694 48.2111 45.0556 47.9492 44.8999C47.6907 44.7441 47.3891 44.6662 47.0444 44.6662C46.6765 44.6662 46.3533 44.7557 46.0749 44.9347C45.7965 45.1103 45.5794 45.3423 45.4237 45.6307C45.2712 45.9157 45.1933 46.2289 45.19 46.5703V47.6293C45.19 48.0734 45.2712 48.4545 45.4336 48.7727C45.596 49.0876 45.823 49.3295 46.1147 49.4986C46.4064 49.6643 46.7478 49.7472 47.1388 49.7472C47.4007 49.7472 47.6377 49.7107 47.8498 49.6378C48.0619 49.5616 48.2459 49.4505 48.4016 49.3047C48.5574 49.1589 48.6751 48.9782 48.7546 48.7628L50.435 48.9517C50.329 49.3958 50.1268 49.7836 49.8285 50.1151C49.5335 50.4432 49.1557 50.6984 48.695 50.8807C48.2343 51.0597 47.7073 51.1491 47.114 51.1491ZM52.0321 51V43.3636H53.7772V44.6364H53.8567C53.9959 44.1955 54.2346 43.8558 54.5726 43.6172C54.914 43.3752 55.3034 43.2543 55.7409 43.2543C55.8404 43.2543 55.9514 43.2592 56.074 43.2692C56.2 43.2758 56.3044 43.2874 56.3873 43.304V44.9595C56.311 44.933 56.19 44.9098 56.0243 44.8899C55.8619 44.8667 55.7045 44.8551 55.552 44.8551C55.2239 44.8551 54.9289 44.9264 54.6671 45.0689C54.4086 45.2081 54.2047 45.402 54.0556 45.6506C53.9064 45.8991 53.8319 46.1858 53.8319 46.5107V51H52.0321ZM59.3416 40.8182V41.8324C59.3416 42.1241 59.2853 42.4273 59.1726 42.7422C59.0632 43.0537 58.9124 43.352 58.7202 43.6371C58.5279 43.9188 58.3092 44.1607 58.0639 44.3629L57.2287 43.821C57.411 43.5459 57.5701 43.2493 57.706 42.9311C57.8419 42.6096 57.9098 42.2467 57.9098 41.8423V40.8182H59.3416ZM65.8469 45.3821L64.2063 45.5611C64.1599 45.3954 64.0787 45.2396 63.9627 45.0938C63.85 44.9479 63.6976 44.8303 63.5053 44.7408C63.3131 44.6513 63.0778 44.6065 62.7994 44.6065C62.4248 44.6065 62.11 44.6877 61.8548 44.8501C61.6029 45.0125 61.4786 45.223 61.4819 45.4815C61.4786 45.7036 61.5598 45.8842 61.7255 46.0234C61.8945 46.1626 62.1729 46.277 62.5607 46.3665L63.8633 46.6449C64.5858 46.8007 65.1228 47.0476 65.4741 47.3857C65.8287 47.7237 66.0077 48.1662 66.011 48.7131C66.0077 49.1937 65.8668 49.6179 65.5884 49.9858C65.3133 50.3504 64.9305 50.6354 64.44 50.8409C63.9495 51.0464 63.386 51.1491 62.7496 51.1491C61.815 51.1491 61.0626 50.9536 60.4925 50.5625C59.9225 50.1681 59.5827 49.6196 59.4734 48.9169L61.2283 48.7479C61.3079 49.0926 61.4769 49.3527 61.7354 49.5284C61.994 49.7041 62.3304 49.7919 62.7447 49.7919C63.1722 49.7919 63.5153 49.7041 63.7738 49.5284C64.0356 49.3527 64.1665 49.1357 64.1665 48.8771C64.1665 48.6584 64.082 48.4777 63.913 48.3352C63.7473 48.1927 63.4888 48.0833 63.1374 48.0071L61.8349 47.7337C61.1024 47.5812 60.5605 47.3243 60.2092 46.9631C59.8578 46.5985 59.6838 46.1378 59.6871 45.581C59.6838 45.1103 59.8114 44.7027 60.07 44.358C60.3318 44.0099 60.6947 43.7415 61.1587 43.5526C61.6261 43.3603 62.1647 43.2642 62.7745 43.2642C63.6694 43.2642 64.3737 43.4548 64.8874 43.8359C65.4045 44.2171 65.7243 44.7325 65.8469 45.3821ZM71.0472 51V40.8182H72.8469V44.6264H72.9215C73.0143 44.4408 73.1452 44.2436 73.3143 44.0348C73.4833 43.8227 73.712 43.642 74.0004 43.4929C74.2887 43.3404 74.6566 43.2642 75.104 43.2642C75.694 43.2642 76.226 43.415 76.6999 43.7166C77.1772 44.0149 77.555 44.4574 77.8335 45.044C78.1152 45.6274 78.256 46.3433 78.256 47.1918C78.256 48.0303 78.1185 48.7429 77.8434 49.3295C77.5683 49.9162 77.1938 50.3636 76.7198 50.6719C76.2459 50.9801 75.7089 51.1342 75.109 51.1342C74.6715 51.1342 74.3086 51.0613 74.0202 50.9155C73.7319 50.7696 73.4999 50.594 73.3242 50.3885C73.1519 50.1797 73.0176 49.9825 72.9215 49.7969H72.8171V51H71.0472ZM72.8121 47.1818C72.8121 47.6757 72.8817 48.1082 73.021 48.4794C73.1635 48.8506 73.3673 49.1406 73.6325 49.3494C73.9009 49.5549 74.2257 49.6577 74.6069 49.6577C75.0046 49.6577 75.3377 49.5516 75.6062 49.3395C75.8746 49.1241 76.0768 48.8307 76.2127 48.4595C76.3519 48.085 76.4215 47.6591 76.4215 47.1818C76.4215 46.7079 76.3536 46.2869 76.2177 45.919C76.0818 45.5511 75.8796 45.2628 75.6112 45.054C75.3427 44.8452 75.0079 44.7408 74.6069 44.7408C74.2224 44.7408 73.896 44.8419 73.6275 45.044C73.359 45.2462 73.1552 45.5296 73.016 45.8942C72.8801 46.2588 72.8121 46.688 72.8121 47.1818ZM79.786 51V43.3636H81.5311V44.6364H81.6106C81.7498 44.1955 81.9885 43.8558 82.3265 43.6172C82.6679 43.3752 83.0574 43.2543 83.4949 43.2543C83.5943 43.2543 83.7053 43.2592 83.8279 43.2692C83.9539 43.2758 84.0583 43.2874 84.1412 43.304V44.9595C84.0649 44.933 83.944 44.9098 83.7782 44.8899C83.6158 44.8667 83.4584 44.8551 83.3059 44.8551C82.9778 44.8551 82.6828 44.9264 82.421 45.0689C82.1625 45.2081 81.9586 45.402 81.8095 45.6506C81.6603 45.8991 81.5858 46.1858 81.5858 46.5107V51H79.786ZM87.3975 51.1541C86.9136 51.1541 86.4778 51.0679 86.09 50.8956C85.7056 50.7199 85.4006 50.4614 85.1752 50.12C84.9532 49.7786 84.8422 49.3577 84.8422 48.8572C84.8422 48.4264 84.9217 48.0701 85.0808 47.7884C85.2399 47.5066 85.457 47.2812 85.7321 47.1122C86.0072 46.9432 86.3171 46.8156 86.6618 46.7294C87.0098 46.6399 87.3694 46.5753 87.7406 46.5355C88.188 46.4891 88.551 46.4477 88.8294 46.4112C89.1078 46.3714 89.31 46.3118 89.4359 46.2322C89.5652 46.1494 89.6298 46.0218 89.6298 45.8494V45.8196C89.6298 45.4451 89.5188 45.1551 89.2967 44.9496C89.0746 44.7441 88.7548 44.6413 88.3372 44.6413C87.8964 44.6413 87.5467 44.7375 87.2882 44.9297C87.033 45.1219 86.8606 45.349 86.7711 45.6108L85.0907 45.3722C85.2233 44.9081 85.4421 44.5204 85.747 44.2088C86.0519 43.8939 86.4248 43.6586 86.8656 43.5028C87.3064 43.3438 87.7936 43.2642 88.3272 43.2642C88.6951 43.2642 89.0614 43.3073 89.426 43.3935C89.7905 43.4796 90.1236 43.6222 90.4252 43.821C90.7269 44.0166 90.9688 44.2834 91.1511 44.6214C91.3367 44.9595 91.4295 45.3821 91.4295 45.8892V51H89.6994V49.951H89.6397C89.5304 50.1631 89.3762 50.362 89.1774 50.5476C88.9818 50.7299 88.7349 50.8774 88.4366 50.9901C88.1416 51.0994 87.7953 51.1541 87.3975 51.1541ZM87.8649 49.8317C88.2261 49.8317 88.5394 49.7604 88.8045 49.6179C89.0697 49.4721 89.2735 49.2798 89.416 49.0412C89.5618 48.8026 89.6348 48.5424 89.6348 48.2607V47.3608C89.5784 47.4072 89.4823 47.4503 89.3464 47.4901C89.2138 47.5298 89.0647 47.5646 88.899 47.5945C88.7333 47.6243 88.5692 47.6508 88.4068 47.674C88.2444 47.6972 88.1035 47.7171 87.9842 47.7337C87.7157 47.7701 87.4754 47.8298 87.2633 47.9126C87.0512 47.9955 86.8838 48.1115 86.7612 48.2607C86.6386 48.4065 86.5772 48.5954 86.5772 48.8274C86.5772 49.1589 86.6982 49.4091 86.9402 49.5781C87.1821 49.7472 87.4904 49.8317 87.8649 49.8317ZM96.5701 51.1491C95.8078 51.1491 95.1532 50.9818 94.6064 50.647C94.0628 50.3123 93.6435 49.8499 93.3485 49.2599C93.0569 48.6667 92.911 47.9839 92.911 47.2116C92.911 46.4361 93.0602 45.7517 93.3585 45.1584C93.6568 44.5618 94.0777 44.0978 94.6213 43.7663C95.1681 43.4316 95.8145 43.2642 96.5602 43.2642C97.18 43.2642 97.7285 43.3786 98.2058 43.6072C98.6864 43.8326 99.0692 44.1525 99.3542 44.5668C99.6393 44.9777 99.8017 45.4583 99.8414 46.0085H98.1213C98.0517 45.6406 97.8859 45.334 97.6241 45.0888C97.3656 44.8402 97.0192 44.7159 96.585 44.7159C96.2172 44.7159 95.894 44.8153 95.6156 45.0142C95.3372 45.2098 95.1201 45.4915 94.9643 45.8594C94.8118 46.2273 94.7356 46.6681 94.7356 47.1818C94.7356 47.7022 94.8118 48.1496 94.9643 48.5241C95.1168 48.8954 95.3306 49.1821 95.6056 49.3842C95.8841 49.5831 96.2105 49.6825 96.585 49.6825C96.8502 49.6825 97.0872 49.6328 97.296 49.5334C97.5081 49.4306 97.6854 49.2831 97.8279 49.0909C97.9705 48.8987 98.0682 48.665 98.1213 48.3899H99.8414C99.7984 48.9302 99.6393 49.4091 99.3642 49.8267C99.0891 50.241 98.7145 50.5658 98.2406 50.8011C97.7666 51.0331 97.2098 51.1491 96.5701 51.1491ZM102.96 48.6037L102.955 46.4311H103.243L105.988 43.3636H108.091L104.715 47.1222H104.342L102.96 48.6037ZM101.319 51V40.8182H103.119V51H101.319ZM106.112 51L103.626 47.5249L104.839 46.2571L108.265 51H106.112ZM112.356 51.1491C111.591 51.1491 110.929 50.9901 110.373 50.6719C109.819 50.3504 109.393 49.8963 109.095 49.3097C108.797 48.7197 108.647 48.0253 108.647 47.2266C108.647 46.4411 108.797 45.7517 109.095 45.1584C109.396 44.5618 109.817 44.0978 110.358 43.7663C110.898 43.4316 111.533 43.2642 112.262 43.2642C112.732 43.2642 113.176 43.3404 113.594 43.4929C114.015 43.642 114.386 43.8741 114.708 44.1889C115.033 44.5038 115.288 44.9048 115.473 45.392C115.659 45.8759 115.752 46.4527 115.752 47.1222V47.674H109.493V46.4609H114.027C114.023 46.1162 113.949 45.8097 113.803 45.5412C113.657 45.2694 113.453 45.0556 113.191 44.8999C112.933 44.7441 112.631 44.6662 112.287 44.6662C111.919 44.6662 111.596 44.7557 111.317 44.9347C111.039 45.1103 110.822 45.3423 110.666 45.6307C110.513 45.9157 110.435 46.2289 110.432 46.5703V47.6293C110.432 48.0734 110.513 48.4545 110.676 48.7727C110.838 49.0876 111.065 49.3295 111.357 49.4986C111.649 49.6643 111.99 49.7472 112.381 49.7472C112.643 49.7472 112.88 49.7107 113.092 49.6378C113.304 49.5616 113.488 49.4505 113.644 49.3047C113.8 49.1589 113.917 48.9782 113.997 48.7628L115.677 48.9517C115.571 49.3958 115.369 49.7836 115.071 50.1151C114.776 50.4432 114.398 50.6984 113.937 50.8807C113.476 51.0597 112.949 51.1491 112.356 51.1491ZM121.088 43.3636V44.7557H116.698V43.3636H121.088ZM117.781 41.5341H119.581V48.7031C119.581 48.9451 119.618 49.1307 119.691 49.2599C119.767 49.3859 119.866 49.4721 119.989 49.5185C120.111 49.5649 120.247 49.5881 120.396 49.5881C120.509 49.5881 120.612 49.5798 120.705 49.5632C120.801 49.5466 120.874 49.5317 120.923 49.5185L121.227 50.9254C121.131 50.9586 120.993 50.995 120.814 51.0348C120.638 51.0746 120.423 51.0978 120.168 51.1044C119.717 51.1177 119.311 51.0497 118.95 50.9006C118.588 50.7481 118.302 50.5128 118.09 50.1946C117.881 49.8764 117.778 49.4787 117.781 49.0014V41.5341Z" fill="white"/>
</svg>
