<svg width="350" height="350" viewBox="0 0 350 350" fill="none" xmlns="http://www.w3.org/2000/svg">
    <rect width="350" height="350" rx="2" fill="#1C1C1C"/>
    <rect y="173.601" width="350" height="29.0393" fill="#414141"/>
    <rect width="350" height="29.0393" fill="#414141"/>
    <path d="M87.494 60.0469H46.2404C42.3239 60.0469 40.7573 61.402 40.7573 64.7688V73.3233C40.7573 76.69 42.3239 78.0452 46.2404 78.0452H87.494C91.4105 78.0452 92.9771 76.69 92.9771 73.3233V64.7688C92.9771 61.402 91.4105 60.0469 87.494 60.0469Z" stroke="white" stroke-width="1.5" stroke-linecap="round" stroke-linejoin="round"/>
    <path d="M87.494 35.6963H46.2404C42.3239 35.6963 40.7573 37.0515 40.7573 40.4182V48.9727C40.7573 52.3394 42.3239 53.6946 46.2404 53.6946H87.494C91.4105 53.6946 92.9771 52.3394 92.9771 48.9727V40.4182C92.9771 37.0515 91.4105 35.6963 87.494 35.6963Z" stroke="white" stroke-width="1.5" stroke-linecap="round" stroke-linejoin="round"/>
    <path d="M87.494 133.409H46.2404C42.3239 133.409 40.7573 134.764 40.7573 138.131V146.686C40.7573 150.052 42.3239 151.407 46.2404 151.407H87.494C91.4105 151.407 92.9771 150.052 92.9771 146.686V138.131C92.9771 134.764 91.4105 133.409 87.494 133.409Z" stroke="white" stroke-width="1.5" stroke-linecap="round" stroke-linejoin="round"/>
    <path d="M87.494 109.059H46.2404C42.3239 109.059 40.7573 110.414 40.7573 113.781V122.335C40.7573 125.702 42.3239 127.057 46.2404 127.057H87.494C91.4105 127.057 92.9771 125.702 92.9771 122.335V113.781C92.9771 110.414 91.4105 109.059 87.494 109.059Z" stroke="white" stroke-width="1.5" stroke-linecap="round" stroke-linejoin="round"/>
    <path d="M176.904 97.4922H135.651C131.734 97.4922 130.167 98.8474 130.167 102.214V110.769C130.167 114.135 131.734 115.491 135.651 115.491H176.904C180.821 115.491 182.387 114.135 182.387 110.769V102.214C182.387 98.8474 180.821 97.4922 176.904 97.4922Z" stroke="white" stroke-width="1.5" stroke-linecap="round" stroke-linejoin="round"/>
    <path d="M176.904 73.1416H135.651C131.734 73.1416 130.167 74.4968 130.167 77.8635V86.418C130.167 89.7848 131.734 91.1399 135.651 91.1399H176.904C180.821 91.1399 182.387 89.7848 182.387 86.418V77.8635C182.387 74.4968 180.821 73.1416 176.904 73.1416Z" stroke="white" stroke-width="1.5" stroke-linecap="round" stroke-linejoin="round"/>
    <path d="M267.079 140.287H225.825C221.909 140.287 220.342 141.642 220.342 145.009V153.564C220.342 156.93 221.909 158.285 225.825 158.285H267.079C270.995 158.285 272.562 156.93 272.562 153.564V145.009C272.562 141.642 270.995 140.287 267.079 140.287Z" stroke="white" stroke-width="1.5" stroke-linecap="round" stroke-linejoin="round"/>
    <path d="M267.079 115.937H225.825C221.909 115.937 220.342 117.292 220.342 120.658V129.213C220.342 132.58 221.909 133.935 225.825 133.935H267.079C270.995 133.935 272.562 132.58 272.562 129.213V120.658C272.562 117.292 270.995 115.937 267.079 115.937Z" stroke="white" stroke-width="1.5" stroke-linecap="round" stroke-linejoin="round"/>
    <line x1="99" y1="56.5" x2="111.8" y2="56.5" stroke="white"/>
    <line x1="111.381" y1="94.0576" x2="124.181" y2="94.0576" stroke="white"/>
    <path d="M98.5806 129.924H112" stroke="white"/>
    <line x1="111.5" y1="56" x2="111.5" y2="130" stroke="white"/>
    <path d="M87.494 282.307H46.2404C42.3239 282.307 40.7573 283.662 40.7573 287.029V295.583C40.7573 298.95 42.3239 300.305 46.2404 300.305H87.494C91.4105 300.305 92.9771 298.95 92.9771 295.583V287.029C92.9771 283.662 91.4105 282.307 87.494 282.307Z" stroke="white" stroke-width="1.5" stroke-linecap="round" stroke-linejoin="round"/>
    <path d="M87.494 257.956H46.2404C42.3239 257.956 40.7573 259.311 40.7573 262.678V271.232C40.7573 274.599 42.3239 275.954 46.2404 275.954H87.494C91.4105 275.954 92.9771 274.599 92.9771 271.232V262.678C92.9771 259.311 91.4105 257.956 87.494 257.956Z" stroke="white" stroke-width="1.5" stroke-linecap="round" stroke-linejoin="round"/>
    <path d="M176.904 282.307H135.651C131.734 282.307 130.167 283.662 130.167 287.029V295.583C130.167 298.95 131.734 300.305 135.651 300.305H176.904C180.821 300.305 182.387 298.95 182.387 295.583V287.029C182.387 283.662 180.821 282.307 176.904 282.307Z" stroke="white" stroke-width="1.5" stroke-linecap="round" stroke-linejoin="round"/>
    <path d="M176.904 257.956H135.651C131.734 257.956 130.167 259.311 130.167 262.678V271.232C130.167 274.599 131.734 275.954 135.651 275.954H176.904C180.821 275.954 182.387 274.599 182.387 271.232V262.678C182.387 259.311 180.821 257.956 176.904 257.956Z" stroke="white" stroke-width="1.5" stroke-linecap="round" stroke-linejoin="round"/>
    <line x1="189" y1="93.5" x2="201.8" y2="93.5" stroke="white"/>
    <line x1="201.357" y1="137.753" x2="214.157" y2="137.753" stroke="white"/>
    <line x1="201.5" y1="93" x2="201.5" y2="279" stroke="white"/>
    <line x1="189" y1="278.5" x2="201.8" y2="278.5" stroke="white"/>
    <line x1="98" y1="278.5" x2="125" y2="278.5" stroke="white"/>
    <path d="M12.0043 192V181.818H13.8487V190.454H18.3331V192H12.0043ZM23.1854 192.149C22.4396 192.149 21.7933 191.985 21.2464 191.657C20.6996 191.329 20.2753 190.87 19.9737 190.28C19.6754 189.69 19.5263 189 19.5263 188.212C19.5263 187.423 19.6754 186.732 19.9737 186.138C20.2753 185.545 20.6996 185.085 21.2464 184.756C21.7933 184.428 22.4396 184.264 23.1854 184.264C23.9311 184.264 24.5774 184.428 25.1243 184.756C25.6712 185.085 26.0938 185.545 26.392 186.138C26.6937 186.732 26.8445 187.423 26.8445 188.212C26.8445 189 26.6937 189.69 26.392 190.28C26.0938 190.87 25.6712 191.329 25.1243 191.657C24.5774 191.985 23.9311 192.149 23.1854 192.149ZM23.1953 190.707C23.5997 190.707 23.9377 190.596 24.2095 190.374C24.4813 190.149 24.6835 189.847 24.8161 189.469C24.9519 189.092 25.0199 188.671 25.0199 188.207C25.0199 187.739 24.9519 187.317 24.8161 186.939C24.6835 186.558 24.4813 186.254 24.2095 186.029C23.9377 185.804 23.5997 185.691 23.1953 185.691C22.781 185.691 22.4363 185.804 22.1612 186.029C21.8894 186.254 21.6856 186.558 21.5497 186.939C21.4171 187.317 21.3509 187.739 21.3509 188.207C21.3509 188.671 21.4171 189.092 21.5497 189.469C21.6856 189.847 21.8894 190.149 22.1612 190.374C22.4363 190.596 22.781 190.707 23.1953 190.707ZM34.4075 186.382L32.7669 186.561C32.7205 186.395 32.6393 186.24 32.5233 186.094C32.4106 185.948 32.2581 185.83 32.0659 185.741C31.8736 185.651 31.6383 185.607 31.3599 185.607C30.9854 185.607 30.6705 185.688 30.4153 185.85C30.1634 186.013 30.0391 186.223 30.0424 186.482C30.0391 186.704 30.1203 186.884 30.286 187.023C30.4551 187.163 30.7335 187.277 31.1213 187.366L32.4238 187.645C33.1464 187.801 33.6833 188.048 34.0346 188.386C34.3893 188.724 34.5682 189.166 34.5716 189.713C34.5682 190.194 34.4274 190.618 34.149 190.986C33.8739 191.35 33.4911 191.635 33.0005 191.841C32.51 192.046 31.9466 192.149 31.3102 192.149C30.3755 192.149 29.6232 191.954 29.0531 191.562C28.483 191.168 28.1433 190.62 28.0339 189.917L29.7889 189.748C29.8684 190.093 30.0375 190.353 30.296 190.528C30.5545 190.704 30.8909 190.792 31.3052 190.792C31.7328 190.792 32.0758 190.704 32.3343 190.528C32.5962 190.353 32.7271 190.136 32.7271 189.877C32.7271 189.658 32.6426 189.478 32.4735 189.335C32.3078 189.193 32.0493 189.083 31.698 189.007L30.3954 188.734C29.6629 188.581 29.121 188.324 28.7697 187.963C28.4184 187.598 28.2444 187.138 28.2477 186.581C28.2444 186.11 28.372 185.703 28.6305 185.358C28.8923 185.01 29.2553 184.741 29.7193 184.553C30.1866 184.36 30.7252 184.264 31.335 184.264C32.2299 184.264 32.9342 184.455 33.448 184.836C33.965 185.217 34.2849 185.732 34.4075 186.382ZM39.4363 192.149C38.6706 192.149 38.0094 191.99 37.4526 191.672C36.8991 191.35 36.4732 190.896 36.1749 190.31C35.8766 189.72 35.7275 189.025 35.7275 188.227C35.7275 187.441 35.8766 186.752 36.1749 186.158C36.4765 185.562 36.8974 185.098 37.4377 184.766C37.9779 184.432 38.6126 184.264 39.3418 184.264C39.8124 184.264 40.2566 184.34 40.6742 184.493C41.0951 184.642 41.4663 184.874 41.7878 185.189C42.1126 185.504 42.3678 185.905 42.5534 186.392C42.7391 186.876 42.8319 187.453 42.8319 188.122V188.674H36.5726V187.461H41.1067C41.1034 187.116 41.0288 186.81 40.883 186.541C40.7372 186.269 40.5333 186.056 40.2715 185.9C40.013 185.744 39.7114 185.666 39.3667 185.666C38.9988 185.666 38.6756 185.756 38.3972 185.935C38.1188 186.11 37.9017 186.342 37.7459 186.631C37.5935 186.916 37.5156 187.229 37.5123 187.57V188.629C37.5123 189.073 37.5935 189.455 37.7559 189.773C37.9183 190.088 38.1453 190.33 38.437 190.499C38.7286 190.664 39.07 190.747 39.4611 190.747C39.723 190.747 39.9599 190.711 40.1721 190.638C40.3842 190.562 40.5681 190.451 40.7239 190.305C40.8797 190.159 40.9973 189.978 41.0769 189.763L42.7573 189.952C42.6512 190.396 42.449 190.784 42.1507 191.115C41.8558 191.443 41.4779 191.698 41.0172 191.881C40.5565 192.06 40.0295 192.149 39.4363 192.149ZM44.3544 192V184.364H46.0994V185.636H46.179C46.3182 185.196 46.5568 184.856 46.8949 184.617C47.2363 184.375 47.6257 184.254 48.0632 184.254C48.1626 184.254 48.2737 184.259 48.3963 184.269C48.5223 184.276 48.6267 184.287 48.7095 184.304V185.96C48.6333 185.933 48.5123 185.91 48.3466 185.89C48.1842 185.867 48.0268 185.855 47.8743 185.855C47.5462 185.855 47.2512 185.926 46.9893 186.069C46.7308 186.208 46.527 186.402 46.3778 186.651C46.2287 186.899 46.1541 187.186 46.1541 187.511V192H44.3544ZM51.6639 181.818V182.832C51.6639 183.124 51.6075 183.427 51.4949 183.742C51.3855 184.054 51.2347 184.352 51.0424 184.637C50.8502 184.919 50.6315 185.161 50.3862 185.363L49.551 184.821C49.7333 184.546 49.8923 184.249 50.0282 183.931C50.1641 183.61 50.2321 183.247 50.2321 182.842V181.818H51.6639ZM58.1692 186.382L56.5286 186.561C56.4822 186.395 56.401 186.24 56.285 186.094C56.1723 185.948 56.0198 185.83 55.8276 185.741C55.6354 185.651 55.4 185.607 55.1216 185.607C54.7471 185.607 54.4322 185.688 54.177 185.85C53.9251 186.013 53.8008 186.223 53.8042 186.482C53.8008 186.704 53.882 186.884 54.0478 187.023C54.2168 187.163 54.4952 187.277 54.883 187.366L56.1855 187.645C56.9081 187.801 57.445 188.048 57.7963 188.386C58.151 188.724 58.33 189.166 58.3333 189.713C58.33 190.194 58.1891 190.618 57.9107 190.986C57.6356 191.35 57.2528 191.635 56.7623 191.841C56.2717 192.046 55.7083 192.149 55.0719 192.149C54.1373 192.149 53.3849 191.954 52.8148 191.562C52.2447 191.168 51.905 190.62 51.7956 189.917L53.5506 189.748C53.6301 190.093 53.7992 190.353 54.0577 190.528C54.3162 190.704 54.6526 190.792 55.0669 190.792C55.4945 190.792 55.8375 190.704 56.0961 190.528C56.3579 190.353 56.4888 190.136 56.4888 189.877C56.4888 189.658 56.4043 189.478 56.2353 189.335C56.0695 189.193 55.811 189.083 55.4597 189.007L54.1571 188.734C53.4247 188.581 52.8828 188.324 52.5314 187.963C52.1801 187.598 52.0061 187.138 52.0094 186.581C52.0061 186.11 52.1337 185.703 52.3922 185.358C52.6541 185.01 53.017 184.741 53.481 184.553C53.9483 184.36 54.4869 184.264 55.0968 184.264C55.9917 184.264 56.696 184.455 57.2097 184.836C57.7267 185.217 58.0466 185.732 58.1692 186.382ZM63.3695 192V181.818H65.1692V185.626H65.2438C65.3366 185.441 65.4675 185.244 65.6365 185.035C65.8056 184.823 66.0343 184.642 66.3226 184.493C66.611 184.34 66.9789 184.264 67.4263 184.264C68.0163 184.264 68.5482 184.415 69.0222 184.717C69.4995 185.015 69.8773 185.457 70.1557 186.044C70.4374 186.627 70.5783 187.343 70.5783 188.192C70.5783 189.03 70.4408 189.743 70.1657 190.33C69.8906 190.916 69.516 191.364 69.0421 191.672C68.5681 191.98 68.0312 192.134 67.4313 192.134C66.9938 192.134 66.6309 192.061 66.3425 191.915C66.0542 191.77 65.8221 191.594 65.6465 191.388C65.4741 191.18 65.3399 190.982 65.2438 190.797H65.1394V192H63.3695ZM65.1344 188.182C65.1344 188.676 65.204 189.108 65.3432 189.479C65.4857 189.851 65.6896 190.141 65.9547 190.349C66.2232 190.555 66.548 190.658 66.9292 190.658C67.3269 190.658 67.66 190.552 67.9284 190.339C68.1969 190.124 68.3991 189.831 68.535 189.46C68.6742 189.085 68.7438 188.659 68.7438 188.182C68.7438 187.708 68.6758 187.287 68.54 186.919C68.4041 186.551 68.2019 186.263 67.9334 186.054C67.665 185.845 67.3302 185.741 66.9292 185.741C66.5447 185.741 66.2182 185.842 65.9498 186.044C65.6813 186.246 65.4775 186.53 65.3382 186.894C65.2024 187.259 65.1344 187.688 65.1344 188.182ZM72.1083 192V184.364H73.8533V185.636H73.9329C74.0721 185.196 74.3107 184.856 74.6488 184.617C74.9902 184.375 75.3796 184.254 75.8171 184.254C75.9165 184.254 76.0276 184.259 76.1502 184.269C76.2762 184.276 76.3806 184.287 76.4634 184.304V185.96C76.3872 185.933 76.2662 185.91 76.1005 185.89C75.9381 185.867 75.7807 185.855 75.6282 185.855C75.3001 185.855 75.0051 185.926 74.7433 186.069C74.4847 186.208 74.2809 186.402 74.1317 186.651C73.9826 186.899 73.908 187.186 73.908 187.511V192H72.1083ZM79.7198 192.154C79.2359 192.154 78.8001 192.068 78.4123 191.896C78.0278 191.72 77.7229 191.461 77.4975 191.12C77.2754 190.779 77.1644 190.358 77.1644 189.857C77.1644 189.426 77.244 189.07 77.4031 188.788C77.5621 188.507 77.7792 188.281 78.0543 188.112C78.3294 187.943 78.6393 187.816 78.984 187.729C79.332 187.64 79.6916 187.575 80.0629 187.536C80.5103 187.489 80.8732 187.448 81.1516 187.411C81.43 187.371 81.6322 187.312 81.7582 187.232C81.8874 187.149 81.9521 187.022 81.9521 186.849V186.82C81.9521 186.445 81.841 186.155 81.619 185.95C81.3969 185.744 81.0771 185.641 80.6594 185.641C80.2186 185.641 79.869 185.737 79.6104 185.93C79.3552 186.122 79.1829 186.349 79.0934 186.611L77.413 186.372C77.5456 185.908 77.7643 185.52 78.0692 185.209C78.3742 184.894 78.747 184.659 79.1879 184.503C79.6287 184.344 80.1159 184.264 80.6495 184.264C81.0174 184.264 81.3836 184.307 81.7482 184.393C82.1128 184.48 82.4459 184.622 82.7475 184.821C83.0491 185.017 83.2911 185.283 83.4734 185.621C83.659 185.96 83.7518 186.382 83.7518 186.889V192H82.0217V190.951H81.962C81.8526 191.163 81.6985 191.362 81.4996 191.548C81.3041 191.73 81.0572 191.877 80.7589 191.99C80.4639 192.099 80.1175 192.154 79.7198 192.154ZM80.1871 190.832C80.5484 190.832 80.8616 190.76 81.1268 190.618C81.3919 190.472 81.5958 190.28 81.7383 190.041C81.8841 189.803 81.957 189.542 81.957 189.261V188.361C81.9007 188.407 81.8046 188.45 81.6687 188.49C81.5361 188.53 81.387 188.565 81.2212 188.594C81.0555 188.624 80.8915 188.651 80.729 188.674C80.5666 188.697 80.4258 188.717 80.3065 188.734C80.038 188.77 79.7977 188.83 79.5856 188.913C79.3735 188.996 79.2061 189.112 79.0835 189.261C78.9608 189.406 78.8995 189.595 78.8995 189.827C78.8995 190.159 79.0205 190.409 79.2624 190.578C79.5044 190.747 79.8126 190.832 80.1871 190.832ZM88.8924 192.149C88.1301 192.149 87.4755 191.982 86.9286 191.647C86.3851 191.312 85.9658 190.85 85.6708 190.26C85.3791 189.667 85.2333 188.984 85.2333 188.212C85.2333 187.436 85.3825 186.752 85.6808 186.158C85.979 185.562 86.4 185.098 86.9435 184.766C87.4904 184.432 88.1367 184.264 88.8825 184.264C89.5022 184.264 90.0508 184.379 90.5281 184.607C91.0086 184.833 91.3915 185.152 91.6765 185.567C91.9615 185.978 92.1239 186.458 92.1637 187.009H90.4435C90.3739 186.641 90.2082 186.334 89.9464 186.089C89.6879 185.84 89.3415 185.716 88.9073 185.716C88.5394 185.716 88.2163 185.815 87.9379 186.014C87.6594 186.21 87.4424 186.491 87.2866 186.859C87.1341 187.227 87.0579 187.668 87.0579 188.182C87.0579 188.702 87.1341 189.15 87.2866 189.524C87.439 189.895 87.6528 190.182 87.9279 190.384C88.2063 190.583 88.5328 190.683 88.9073 190.683C89.1725 190.683 89.4094 190.633 89.6183 190.533C89.8304 190.431 90.0077 190.283 90.1502 190.091C90.2927 189.899 90.3905 189.665 90.4435 189.39H92.1637C92.1206 189.93 91.9615 190.409 91.6864 190.827C91.4113 191.241 91.0368 191.566 90.5629 191.801C90.0889 192.033 89.5321 192.149 88.8924 192.149ZM95.2821 189.604L95.2772 187.431H95.5655L98.3098 184.364H100.413L97.0371 188.122H96.6642L95.2821 189.604ZM93.6415 192V181.818H95.4412V192H93.6415ZM98.4341 192L95.9483 188.525L97.1614 187.257L100.587 192H98.4341ZM104.678 192.149C103.913 192.149 103.252 191.99 102.695 191.672C102.141 191.35 101.715 190.896 101.417 190.31C101.119 189.72 100.97 189.025 100.97 188.227C100.97 187.441 101.119 186.752 101.417 186.158C101.719 185.562 102.14 185.098 102.68 184.766C103.22 184.432 103.855 184.264 104.584 184.264C105.055 184.264 105.499 184.34 105.916 184.493C106.337 184.642 106.709 184.874 107.03 185.189C107.355 185.504 107.61 185.905 107.796 186.392C107.981 186.876 108.074 187.453 108.074 188.122V188.674H101.815V187.461H106.349C106.346 187.116 106.271 186.81 106.125 186.541C105.979 186.269 105.776 186.056 105.514 185.9C105.255 185.744 104.954 185.666 104.609 185.666C104.241 185.666 103.918 185.756 103.639 185.935C103.361 186.11 103.144 186.342 102.988 186.631C102.836 186.916 102.758 187.229 102.754 187.57V188.629C102.754 189.073 102.836 189.455 102.998 189.773C103.16 190.088 103.387 190.33 103.679 190.499C103.971 190.664 104.312 190.747 104.703 190.747C104.965 190.747 105.202 190.711 105.414 190.638C105.626 190.562 105.81 190.451 105.966 190.305C106.122 190.159 106.24 189.978 106.319 189.763L107.999 189.952C107.893 190.396 107.691 190.784 107.393 191.115C107.098 191.443 106.72 191.698 106.259 191.881C105.799 192.06 105.272 192.149 104.678 192.149ZM113.41 184.364V185.756H109.02V184.364H113.41ZM110.104 182.534H111.903V189.703C111.903 189.945 111.94 190.131 112.013 190.26C112.089 190.386 112.188 190.472 112.311 190.518C112.434 190.565 112.57 190.588 112.719 190.588C112.831 190.588 112.934 190.58 113.027 190.563C113.123 190.547 113.196 190.532 113.246 190.518L113.549 191.925C113.453 191.959 113.315 191.995 113.136 192.035C112.961 192.075 112.745 192.098 112.49 192.104C112.039 192.118 111.633 192.05 111.272 191.901C110.911 191.748 110.624 191.513 110.412 191.195C110.203 190.876 110.1 190.479 110.104 190.001V182.534Z" fill="white"/>
    <path d="M14.147 21L11.2734 10.8182H13.2571L15.0916 18.3004H15.1861L17.1449 10.8182H18.9496L20.9134 18.3054H21.0028L22.8374 10.8182H24.821L21.9474 21H20.1278L18.0895 13.8558H18.0099L15.9666 21H14.147ZM26.0204 21V13.3636H27.8201V21H26.0204ZM26.9252 12.2798C26.6402 12.2798 26.3949 12.1854 26.1895 11.9964C25.984 11.8042 25.8812 11.5739 25.8812 11.3054C25.8812 11.0336 25.984 10.8033 26.1895 10.6143C26.3949 10.4221 26.6402 10.326 26.9252 10.326C27.2136 10.326 27.4589 10.4221 27.661 10.6143C27.8665 10.8033 27.9693 11.0336 27.9693 11.3054C27.9693 11.5739 27.8665 11.8042 27.661 11.9964C27.4589 12.1854 27.2136 12.2798 26.9252 12.2798ZM31.4705 16.5256V21H29.6708V13.3636H31.391V14.6612H31.4805C31.6561 14.2337 31.9362 13.8939 32.3207 13.642C32.7085 13.3902 33.1874 13.2642 33.7575 13.2642C34.2844 13.2642 34.7435 13.3769 35.1346 13.6023C35.529 13.8277 35.8339 14.1541 36.0494 14.5817C36.2681 15.0092 36.3758 15.5279 36.3725 16.1378V21H34.5728V16.4162C34.5728 15.9058 34.4402 15.5064 34.1751 15.218C33.9132 14.9297 33.5503 14.7855 33.0863 14.7855C32.7714 14.7855 32.4914 14.8551 32.2461 14.9943C32.0041 15.1302 31.8136 15.3274 31.6744 15.5859C31.5385 15.8445 31.4705 16.1577 31.4705 16.5256ZM40.0018 16.5256V21H38.2021V13.3636H39.9222V14.6612H40.0117C40.1874 14.2337 40.4674 13.8939 40.8519 13.642C41.2397 13.3902 41.7186 13.2642 42.2887 13.2642C42.8157 13.2642 43.2747 13.3769 43.6658 13.6023C44.0603 13.8277 44.3652 14.1541 44.5806 14.5817C44.7994 15.0092 44.9071 15.5279 44.9038 16.1378V21H43.104V16.4162C43.104 15.9058 42.9715 15.5064 42.7063 15.218C42.4445 14.9297 42.0816 14.7855 41.6175 14.7855C41.3027 14.7855 41.0226 14.8551 40.7773 14.9943C40.5354 15.1302 40.3448 15.3274 40.2056 15.5859C40.0697 15.8445 40.0018 16.1577 40.0018 16.5256ZM50.114 21.1491C49.3484 21.1491 48.6871 20.9901 48.1303 20.6719C47.5768 20.3504 47.1509 19.8963 46.8526 19.3097C46.5543 18.7197 46.4052 18.0253 46.4052 17.2266C46.4052 16.4411 46.5543 15.7517 46.8526 15.1584C47.1542 14.5618 47.5752 14.0978 48.1154 13.7663C48.6557 13.4316 49.2904 13.2642 50.0195 13.2642C50.4902 13.2642 50.9343 13.3404 51.3519 13.4929C51.7728 13.642 52.1441 13.8741 52.4656 14.1889C52.7904 14.5038 53.0456 14.9048 53.2312 15.392C53.4168 15.8759 53.5096 16.4527 53.5096 17.1222V17.674H47.2504V16.4609H51.7844C51.7811 16.1162 51.7066 15.8097 51.5607 15.5412C51.4149 15.2694 51.2111 15.0556 50.9492 14.8999C50.6907 14.7441 50.3891 14.6662 50.0444 14.6662C49.6765 14.6662 49.3533 14.7557 49.0749 14.9347C48.7965 15.1103 48.5794 15.3423 48.4237 15.6307C48.2712 15.9157 48.1933 16.2289 48.19 16.5703V17.6293C48.19 18.0734 48.2712 18.4545 48.4336 18.7727C48.596 19.0876 48.823 19.3295 49.1147 19.4986C49.4064 19.6643 49.7478 19.7472 50.1388 19.7472C50.4007 19.7472 50.6377 19.7107 50.8498 19.6378C51.0619 19.5616 51.2459 19.4505 51.4016 19.3047C51.5574 19.1589 51.6751 18.9782 51.7546 18.7628L53.435 18.9517C53.329 19.3958 53.1268 19.7836 52.8285 20.1151C52.5335 20.4432 52.1557 20.6984 51.695 20.8807C51.2343 21.0597 50.7073 21.1491 50.114 21.1491ZM55.0321 21V13.3636H56.7772V14.6364H56.8567C56.9959 14.1955 57.2346 13.8558 57.5726 13.6172C57.914 13.3752 58.3034 13.2543 58.7409 13.2543C58.8404 13.2543 58.9514 13.2592 59.074 13.2692C59.2 13.2758 59.3044 13.2874 59.3873 13.304V14.9595C59.311 14.933 59.19 14.9098 59.0243 14.8899C58.8619 14.8667 58.7045 14.8551 58.552 14.8551C58.2239 14.8551 57.9289 14.9264 57.6671 15.0689C57.4086 15.2081 57.2047 15.402 57.0556 15.6506C56.9064 15.8991 56.8319 16.1858 56.8319 16.5107V21H55.0321ZM62.3416 10.8182V11.8324C62.3416 12.1241 62.2853 12.4273 62.1726 12.7422C62.0632 13.0537 61.9124 13.352 61.7202 13.6371C61.5279 13.9188 61.3092 14.1607 61.0639 14.3629L60.2287 13.821C60.411 13.5459 60.5701 13.2493 60.706 12.9311C60.8419 12.6096 60.9098 12.2467 60.9098 11.8423V10.8182H62.3416ZM68.8469 15.3821L67.2063 15.5611C67.1599 15.3954 67.0787 15.2396 66.9627 15.0938C66.85 14.9479 66.6976 14.8303 66.5053 14.7408C66.3131 14.6513 66.0778 14.6065 65.7994 14.6065C65.4248 14.6065 65.11 14.6877 64.8548 14.8501C64.6029 15.0125 64.4786 15.223 64.4819 15.4815C64.4786 15.7036 64.5598 15.8842 64.7255 16.0234C64.8945 16.1626 65.1729 16.277 65.5607 16.3665L66.8633 16.6449C67.5858 16.8007 68.1228 17.0476 68.4741 17.3857C68.8287 17.7237 69.0077 18.1662 69.011 18.7131C69.0077 19.1937 68.8668 19.6179 68.5884 19.9858C68.3133 20.3504 67.9305 20.6354 67.44 20.8409C66.9495 21.0464 66.386 21.1491 65.7496 21.1491C64.815 21.1491 64.0626 20.9536 63.4925 20.5625C62.9225 20.1681 62.5827 19.6196 62.4734 18.9169L64.2283 18.7479C64.3079 19.0926 64.4769 19.3527 64.7354 19.5284C64.994 19.7041 65.3304 19.7919 65.7447 19.7919C66.1722 19.7919 66.5153 19.7041 66.7738 19.5284C67.0356 19.3527 67.1665 19.1357 67.1665 18.8771C67.1665 18.6584 67.082 18.4777 66.913 18.3352C66.7473 18.1927 66.4888 18.0833 66.1374 18.0071L64.8349 17.7337C64.1024 17.5812 63.5605 17.3243 63.2092 16.9631C62.8578 16.5985 62.6838 16.1378 62.6871 15.581C62.6838 15.1103 62.8114 14.7027 63.07 14.358C63.3318 14.0099 63.6947 13.7415 64.1587 13.5526C64.6261 13.3603 65.1647 13.2642 65.7745 13.2642C66.6694 13.2642 67.3737 13.4548 67.8874 13.8359C68.4045 14.2171 68.7243 14.7325 68.8469 15.3821ZM74.0472 21V10.8182H75.8469V14.6264H75.9215C76.0143 14.4408 76.1452 14.2436 76.3143 14.0348C76.4833 13.8227 76.712 13.642 77.0004 13.4929C77.2887 13.3404 77.6566 13.2642 78.104 13.2642C78.694 13.2642 79.226 13.415 79.6999 13.7166C80.1772 14.0149 80.555 14.4574 80.8335 15.044C81.1152 15.6274 81.256 16.3433 81.256 17.1918C81.256 18.0303 81.1185 18.7429 80.8434 19.3295C80.5683 19.9162 80.1938 20.3636 79.7198 20.6719C79.2459 20.9801 78.7089 21.1342 78.109 21.1342C77.6715 21.1342 77.3086 21.0613 77.0202 20.9155C76.7319 20.7696 76.4999 20.594 76.3242 20.3885C76.1519 20.1797 76.0176 19.9825 75.9215 19.7969H75.8171V21H74.0472ZM75.8121 17.1818C75.8121 17.6757 75.8817 18.1082 76.021 18.4794C76.1635 18.8506 76.3673 19.1406 76.6325 19.3494C76.9009 19.5549 77.2257 19.6577 77.6069 19.6577C78.0046 19.6577 78.3377 19.5516 78.6062 19.3395C78.8746 19.1241 79.0768 18.8307 79.2127 18.4595C79.3519 18.085 79.4215 17.6591 79.4215 17.1818C79.4215 16.7079 79.3536 16.2869 79.2177 15.919C79.0818 15.5511 78.8796 15.2628 78.6112 15.054C78.3427 14.8452 78.0079 14.7408 77.6069 14.7408C77.2224 14.7408 76.896 14.8419 76.6275 15.044C76.359 15.2462 76.1552 15.5296 76.016 15.8942C75.8801 16.2588 75.8121 16.688 75.8121 17.1818ZM82.786 21V13.3636H84.5311V14.6364H84.6106C84.7498 14.1955 84.9885 13.8558 85.3265 13.6172C85.6679 13.3752 86.0574 13.2543 86.4949 13.2543C86.5943 13.2543 86.7053 13.2592 86.8279 13.2692C86.9539 13.2758 87.0583 13.2874 87.1412 13.304V14.9595C87.0649 14.933 86.944 14.9098 86.7782 14.8899C86.6158 14.8667 86.4584 14.8551 86.3059 14.8551C85.9778 14.8551 85.6828 14.9264 85.421 15.0689C85.1625 15.2081 84.9586 15.402 84.8095 15.6506C84.6603 15.8991 84.5858 16.1858 84.5858 16.5107V21H82.786ZM90.3975 21.1541C89.9136 21.1541 89.4778 21.0679 89.09 20.8956C88.7056 20.7199 88.4006 20.4614 88.1752 20.12C87.9532 19.7786 87.8422 19.3577 87.8422 18.8572C87.8422 18.4264 87.9217 18.0701 88.0808 17.7884C88.2399 17.5066 88.457 17.2812 88.7321 17.1122C89.0072 16.9432 89.3171 16.8156 89.6618 16.7294C90.0098 16.6399 90.3694 16.5753 90.7406 16.5355C91.188 16.4891 91.551 16.4477 91.8294 16.4112C92.1078 16.3714 92.31 16.3118 92.4359 16.2322C92.5652 16.1494 92.6298 16.0218 92.6298 15.8494V15.8196C92.6298 15.4451 92.5188 15.1551 92.2967 14.9496C92.0746 14.7441 91.7548 14.6413 91.3372 14.6413C90.8964 14.6413 90.5467 14.7375 90.2882 14.9297C90.033 15.1219 89.8606 15.349 89.7711 15.6108L88.0907 15.3722C88.2233 14.9081 88.4421 14.5204 88.747 14.2088C89.0519 13.8939 89.4248 13.6586 89.8656 13.5028C90.3064 13.3438 90.7936 13.2642 91.3272 13.2642C91.6951 13.2642 92.0614 13.3073 92.426 13.3935C92.7905 13.4796 93.1236 13.6222 93.4252 13.821C93.7269 14.0166 93.9688 14.2834 94.1511 14.6214C94.3367 14.9595 94.4295 15.3821 94.4295 15.8892V21H92.6994V19.951H92.6397C92.5304 20.1631 92.3762 20.362 92.1774 20.5476C91.9818 20.7299 91.7349 20.8774 91.4366 20.9901C91.1416 21.0994 90.7953 21.1541 90.3975 21.1541ZM90.8649 19.8317C91.2261 19.8317 91.5394 19.7604 91.8045 19.6179C92.0697 19.4721 92.2735 19.2798 92.416 19.0412C92.5618 18.8026 92.6348 18.5424 92.6348 18.2607V17.3608C92.5784 17.4072 92.4823 17.4503 92.3464 17.4901C92.2138 17.5298 92.0647 17.5646 91.899 17.5945C91.7333 17.6243 91.5692 17.6508 91.4068 17.674C91.2444 17.6972 91.1035 17.7171 90.9842 17.7337C90.7157 17.7701 90.4754 17.8298 90.2633 17.9126C90.0512 17.9955 89.8838 18.1115 89.7612 18.2607C89.6386 18.4065 89.5772 18.5954 89.5772 18.8274C89.5772 19.1589 89.6982 19.4091 89.9402 19.5781C90.1821 19.7472 90.4904 19.8317 90.8649 19.8317ZM99.5701 21.1491C98.8078 21.1491 98.1532 20.9818 97.6064 20.647C97.0628 20.3123 96.6435 19.8499 96.3485 19.2599C96.0569 18.6667 95.911 17.9839 95.911 17.2116C95.911 16.4361 96.0602 15.7517 96.3585 15.1584C96.6568 14.5618 97.0777 14.0978 97.6213 13.7663C98.1681 13.4316 98.8145 13.2642 99.5602 13.2642C100.18 13.2642 100.729 13.3786 101.206 13.6072C101.686 13.8326 102.069 14.1525 102.354 14.5668C102.639 14.9777 102.802 15.4583 102.841 16.0085H101.121C101.052 15.6406 100.886 15.334 100.624 15.0888C100.366 14.8402 100.019 14.7159 99.585 14.7159C99.2172 14.7159 98.894 14.8153 98.6156 15.0142C98.3372 15.2098 98.1201 15.4915 97.9643 15.8594C97.8118 16.2273 97.7356 16.6681 97.7356 17.1818C97.7356 17.7022 97.8118 18.1496 97.9643 18.5241C98.1168 18.8954 98.3306 19.1821 98.6056 19.3842C98.8841 19.5831 99.2105 19.6825 99.585 19.6825C99.8502 19.6825 100.087 19.6328 100.296 19.5334C100.508 19.4306 100.685 19.2831 100.828 19.0909C100.97 18.8987 101.068 18.665 101.121 18.3899H102.841C102.798 18.9302 102.639 19.4091 102.364 19.8267C102.089 20.241 101.715 20.5658 101.241 20.8011C100.767 21.0331 100.21 21.1491 99.5701 21.1491ZM105.96 18.6037L105.955 16.4311H106.243L108.988 13.3636H111.091L107.715 17.1222H107.342L105.96 18.6037ZM104.319 21V10.8182H106.119V21H104.319ZM109.112 21L106.626 17.5249L107.839 16.2571L111.265 21H109.112ZM115.356 21.1491C114.591 21.1491 113.929 20.9901 113.373 20.6719C112.819 20.3504 112.393 19.8963 112.095 19.3097C111.797 18.7197 111.647 18.0253 111.647 17.2266C111.647 16.4411 111.797 15.7517 112.095 15.1584C112.396 14.5618 112.817 14.0978 113.358 13.7663C113.898 13.4316 114.533 13.2642 115.262 13.2642C115.732 13.2642 116.176 13.3404 116.594 13.4929C117.015 13.642 117.386 13.8741 117.708 14.1889C118.033 14.5038 118.288 14.9048 118.473 15.392C118.659 15.8759 118.752 16.4527 118.752 17.1222V17.674H112.493V16.4609H117.027C117.023 16.1162 116.949 15.8097 116.803 15.5412C116.657 15.2694 116.453 15.0556 116.191 14.8999C115.933 14.7441 115.631 14.6662 115.287 14.6662C114.919 14.6662 114.596 14.7557 114.317 14.9347C114.039 15.1103 113.822 15.3423 113.666 15.6307C113.513 15.9157 113.435 16.2289 113.432 16.5703V17.6293C113.432 18.0734 113.513 18.4545 113.676 18.7727C113.838 19.0876 114.065 19.3295 114.357 19.4986C114.649 19.6643 114.99 19.7472 115.381 19.7472C115.643 19.7472 115.88 19.7107 116.092 19.6378C116.304 19.5616 116.488 19.4505 116.644 19.3047C116.8 19.1589 116.917 18.9782 116.997 18.7628L118.677 18.9517C118.571 19.3958 118.369 19.7836 118.071 20.1151C117.776 20.4432 117.398 20.6984 116.937 20.8807C116.476 21.0597 115.949 21.1491 115.356 21.1491ZM124.088 13.3636V14.7557H119.698V13.3636H124.088ZM120.781 11.5341H122.581V18.7031C122.581 18.9451 122.618 19.1307 122.691 19.2599C122.767 19.3859 122.866 19.4721 122.989 19.5185C123.111 19.5649 123.247 19.5881 123.396 19.5881C123.509 19.5881 123.612 19.5798 123.705 19.5632C123.801 19.5466 123.874 19.5317 123.923 19.5185L124.227 20.9254C124.131 20.9586 123.993 20.995 123.814 21.0348C123.638 21.0746 123.423 21.0978 123.168 21.1044C122.717 21.1177 122.311 21.0497 121.95 20.9006C121.588 20.7481 121.302 20.5128 121.09 20.1946C120.881 19.8764 120.778 19.4787 120.781 19.0014V11.5341Z" fill="white"/>
</svg>
