<svg width="350" height="350" viewBox="0 0 350 350" fill="none" xmlns="http://www.w3.org/2000/svg">
    <rect width="350" height="350" fill="white"/>
    <rect width="350" height="350" rx="2" fill="#1C1C1C"/>
    <path d="M127.853 104.13H46.3429C38.6046 104.13 35.5093 106.996 35.5093 114.116V132.207C35.5093 139.327 38.6046 142.193 46.3429 142.193H127.853C135.592 142.193 138.687 139.327 138.687 132.207V114.116C138.687 106.996 135.592 104.13 127.853 104.13Z" stroke="white" stroke-width="1.5" stroke-linecap="round" stroke-linejoin="round"/>
    <path d="M127.853 52.6338H46.3429C38.6046 52.6338 35.5093 55.4997 35.5093 62.6197V80.7107C35.5093 87.8306 38.6046 90.6965 46.3429 90.6965H127.853C135.592 90.6965 138.687 87.8306 138.687 80.7107V62.6197C138.687 55.4997 135.592 52.6338 127.853 52.6338Z" stroke="white" stroke-width="1.5" stroke-linecap="round" stroke-linejoin="round"/>
    <path d="M127.853 259.303H46.3429C38.6046 259.303 35.5093 262.169 35.5093 269.289V287.38C35.5093 294.5 38.6046 297.365 46.3429 297.365H127.853C135.592 297.365 138.687 294.5 138.687 287.38V269.289C138.687 262.169 135.592 259.303 127.853 259.303Z" stroke="white" stroke-width="1.5" stroke-linecap="round" stroke-linejoin="round"/>
    <path d="M127.853 207.807H46.3429C38.6046 207.807 35.5093 210.673 35.5093 217.793V235.884C35.5093 243.003 38.6046 245.869 46.3429 245.869H127.853C135.592 245.869 138.687 243.003 138.687 235.884V217.793C138.687 210.673 135.592 207.807 127.853 207.807Z" stroke="white" stroke-width="1.5" stroke-linecap="round" stroke-linejoin="round"/>
    <path d="M304.193 183.44H222.683C214.944 183.44 211.849 186.306 211.849 193.426V211.517C211.849 218.637 214.944 221.503 222.683 221.503H304.193C311.931 221.503 315.027 218.637 315.027 211.517V193.426C315.027 186.306 311.931 183.44 304.193 183.44Z" stroke="white" stroke-width="1.5" stroke-linecap="round" stroke-linejoin="round"/>
    <path d="M304.193 131.944H222.683C214.944 131.944 211.849 134.81 211.849 141.93V160.021C211.849 167.141 214.944 170.007 222.683 170.007H304.193C311.931 170.007 315.027 167.141 315.027 160.021V141.93C315.027 134.81 311.931 131.944 304.193 131.944Z" stroke="white" stroke-width="1.5" stroke-linecap="round" stroke-linejoin="round"/>
    <line x1="149.077" y1="97.2012" x2="174.268" y2="97.2012" stroke="white"/>
    <line x1="174.268" y1="176.512" x2="199.46" y2="176.512" stroke="white"/>
    <line x1="149.077" y1="252.374" x2="174.268" y2="252.374" stroke="white"/>
    <line x1="173.768" y1="97.7012" x2="173.768" y2="252.874" stroke="white"/>
</svg>
