<svg width="350" height="350" viewBox="0 0 350 350" fill="none" xmlns="http://www.w3.org/2000/svg">
    <rect width="350" height="350" rx="2" fill="#1C1C1C"/>
    <path d="M127.853 104.13H46.343C38.6047 104.13 35.5094 106.996 35.5094 114.116V132.207C35.5094 139.327 38.6047 142.193 46.343 142.193H127.853C135.592 142.193 138.687 139.327 138.687 132.207V114.116C138.687 106.996 135.592 104.13 127.853 104.13Z" stroke="white" stroke-width="1.5" stroke-linecap="round" stroke-linejoin="round"/>
    <path d="M127.853 52.6338H46.343C38.6047 52.6338 35.5094 55.4997 35.5094 62.6197V80.7107C35.5094 87.8306 38.6047 90.6965 46.343 90.6965H127.853C135.592 90.6965 138.687 87.8306 138.687 80.7107V62.6197C138.687 55.4997 135.592 52.6338 127.853 52.6338Z" stroke="white" stroke-width="1.5" stroke-linecap="round" stroke-linejoin="round"/>
    <path d="M127.853 259.303H46.343C38.6047 259.303 35.5094 262.169 35.5094 269.289V287.38C35.5094 294.5 38.6047 297.365 46.343 297.365H127.853C135.592 297.365 138.687 294.5 138.687 287.38V269.289C138.687 262.169 135.592 259.303 127.853 259.303Z" stroke="white" stroke-width="1.5" stroke-linecap="round" stroke-linejoin="round"/>
    <path d="M127.853 207.807H46.343C38.6047 207.807 35.5094 210.673 35.5094 217.793V235.884C35.5094 243.003 38.6047 245.869 46.343 245.869H127.853C135.592 245.869 138.687 243.003 138.687 235.884V217.793C138.687 210.673 135.592 207.807 127.853 207.807Z" stroke="white" stroke-width="1.5" stroke-linecap="round" stroke-linejoin="round"/>
    <path d="M304.193 183.44H222.683C214.944 183.44 211.849 186.306 211.849 193.426V211.517C211.849 218.637 214.944 221.503 222.683 221.503H304.193C311.931 221.503 315.027 218.637 315.027 211.517V193.426C315.027 186.306 311.931 183.44 304.193 183.44Z" stroke="white" stroke-width="1.5" stroke-linecap="round" stroke-linejoin="round"/>
    <path d="M304.193 131.944H222.683C214.944 131.944 211.849 134.81 211.849 141.93V160.021C211.849 167.141 214.944 170.007 222.683 170.007H304.193C311.931 170.007 315.027 167.141 315.027 160.021V141.93C315.027 134.81 311.931 131.944 304.193 131.944Z" stroke="white" stroke-width="1.5" stroke-linecap="round" stroke-linejoin="round"/>
    <line x1="150.077" y1="97.2012" x2="175.268" y2="97.2012" stroke="white"/>
    <line x1="175.268" y1="176.512" x2="200.46" y2="176.512" stroke="white"/>
    <line x1="150.077" y1="252.374" x2="175.268" y2="252.374" stroke="white"/>
    <line x1="175.768" y1="97.7012" x2="175.768" y2="252.874" stroke="white"/>
    <rect width="350" height="29.0393" fill="#414141"/>
    <path d="M33.4055 14.5078C33.3459 13.9496 33.0945 13.5149 32.6513 13.2038C32.2124 12.8928 31.6413 12.7372 30.9382 12.7372C30.4439 12.7372 30.0199 12.8118 29.6662 12.9609C29.3125 13.1101 29.0419 13.3125 28.8544 13.5682C28.6669 13.8239 28.571 14.1158 28.5668 14.4439C28.5668 14.7166 28.6286 14.9531 28.7521 15.1534C28.88 15.3537 29.0526 15.5241 29.2699 15.6648C29.4872 15.8011 29.728 15.9162 29.9922 16.0099C30.2564 16.1037 30.5227 16.1825 30.7912 16.2464L32.0185 16.5533C32.5128 16.6683 32.9879 16.8239 33.4439 17.0199C33.9041 17.2159 34.3153 17.4631 34.6776 17.7614C35.044 18.0597 35.3338 18.4197 35.5469 18.8416C35.7599 19.2635 35.8665 19.7578 35.8665 20.3246C35.8665 21.0916 35.6705 21.767 35.2784 22.3509C34.8864 22.9304 34.3196 23.3842 33.5781 23.7124C32.8409 24.0362 31.9482 24.1982 30.8999 24.1982C29.8814 24.1982 28.9972 24.0405 28.2472 23.7251C27.5014 23.4098 26.9176 22.9496 26.4957 22.3445C26.0781 21.7393 25.8523 21.0021 25.8182 20.1328H28.1513C28.1854 20.5888 28.326 20.968 28.5732 21.2706C28.8203 21.5732 29.142 21.799 29.5384 21.9482C29.9389 22.0973 30.3864 22.1719 30.8807 22.1719C31.3963 22.1719 31.848 22.0952 32.2358 21.9418C32.6278 21.7841 32.9347 21.5668 33.1562 21.2898C33.3778 21.0085 33.4908 20.6804 33.495 20.3054C33.4908 19.9645 33.3906 19.6832 33.1946 19.4616C32.9986 19.2358 32.7237 19.0483 32.37 18.8991C32.0206 18.7457 31.6115 18.6094 31.1428 18.4901L29.6534 18.1065C28.5753 17.8295 27.723 17.4098 27.0966 16.8473C26.4744 16.2805 26.1634 15.5284 26.1634 14.5909C26.1634 13.8196 26.3722 13.1442 26.7898 12.5646C27.2116 11.9851 27.7848 11.5355 28.5092 11.2159C29.2337 10.892 30.054 10.7301 30.9702 10.7301C31.8991 10.7301 32.7131 10.892 33.4119 11.2159C34.1151 11.5355 34.6669 11.9808 35.0675 12.5518C35.468 13.1186 35.6747 13.7706 35.6875 14.5078H33.4055ZM37.8784 24V14.1818H40.1923V24H37.8784ZM39.0417 12.7884C38.6752 12.7884 38.3599 12.6669 38.0957 12.424C37.8315 12.1768 37.6994 11.8807 37.6994 11.5355C37.6994 11.1861 37.8315 10.8899 38.0957 10.647C38.3599 10.3999 38.6752 10.2763 39.0417 10.2763C39.4125 10.2763 39.7278 10.3999 39.9877 10.647C40.252 10.8899 40.3841 11.1861 40.3841 11.5355C40.3841 11.8807 40.252 12.1768 39.9877 12.424C39.7278 12.6669 39.4125 12.7884 39.0417 12.7884ZM44.8857 18.2472V24H42.5717V14.1818H44.7834V15.8501H44.8984C45.1243 15.3004 45.4844 14.8636 45.9787 14.5398C46.4773 14.2159 47.093 14.054 47.826 14.054C48.5036 14.054 49.0938 14.1989 49.5966 14.4886C50.1037 14.7784 50.4957 15.1982 50.7727 15.7479C51.054 16.2976 51.1925 16.9645 51.1882 17.7486V24H48.8743V18.1065C48.8743 17.4503 48.7038 16.9368 48.3629 16.5661C48.0263 16.1953 47.5597 16.0099 46.9631 16.0099C46.5582 16.0099 46.1982 16.0994 45.8828 16.2784C45.5717 16.4531 45.3267 16.7067 45.1477 17.0391C44.973 17.3714 44.8857 17.7741 44.8857 18.2472ZM57.8104 27.8864C56.9794 27.8864 56.2656 27.7734 55.669 27.5476C55.0724 27.326 54.593 27.0277 54.2308 26.6527C53.8686 26.2777 53.6172 25.8622 53.4766 25.4062L55.5604 24.9013C55.6541 25.093 55.7905 25.2827 55.9695 25.4702C56.1484 25.6619 56.3892 25.8196 56.6918 25.9432C56.9986 26.071 57.3842 26.1349 57.8487 26.1349C58.505 26.1349 59.0483 25.9751 59.4787 25.6555C59.9091 25.3402 60.1243 24.8203 60.1243 24.0959V22.2358H60.0092C59.8899 22.4744 59.7152 22.7195 59.4851 22.9709C59.2592 23.2223 58.9588 23.4332 58.5838 23.6037C58.2131 23.7741 57.7464 23.8594 57.1839 23.8594C56.4297 23.8594 55.7457 23.6825 55.1321 23.3288C54.5227 22.9709 54.0369 22.4382 53.6747 21.7308C53.3168 21.0192 53.1378 20.1286 53.1378 19.0589C53.1378 17.9808 53.3168 17.071 53.6747 16.3295C54.0369 15.5838 54.5249 15.0192 55.1385 14.6357C55.7521 14.2479 56.4361 14.054 57.1903 14.054C57.7656 14.054 58.2386 14.152 58.6094 14.348C58.9844 14.5398 59.2827 14.772 59.5043 15.0447C59.7259 15.3132 59.8942 15.5668 60.0092 15.8054H60.1371V14.1818H62.419V24.1598C62.419 24.9993 62.2188 25.6939 61.8182 26.2436C61.4176 26.7933 60.87 27.2045 60.1754 27.4773C59.4808 27.75 58.6925 27.8864 57.8104 27.8864ZM57.8295 22.044C58.3196 22.044 58.7372 21.9247 59.0824 21.6861C59.4276 21.4474 59.6896 21.1044 59.8686 20.657C60.0476 20.2095 60.1371 19.6726 60.1371 19.0462C60.1371 18.4283 60.0476 17.8871 59.8686 17.4226C59.6939 16.9581 59.4339 16.598 59.0888 16.3423C58.7479 16.0824 58.3281 15.9524 57.8295 15.9524C57.3139 15.9524 56.8835 16.0866 56.5384 16.3551C56.1932 16.6236 55.9332 16.9922 55.7585 17.4609C55.5838 17.9254 55.4964 18.4538 55.4964 19.0462C55.4964 19.647 55.5838 20.1733 55.7585 20.625C55.9375 21.0724 56.1996 21.4219 56.5447 21.6733C56.8942 21.9205 57.3224 22.044 57.8295 22.044ZM67.1044 10.9091V24H64.7905V10.9091H67.1044ZM73.8304 24.1918C72.8461 24.1918 71.9959 23.9872 71.28 23.5781C70.5684 23.1648 70.0208 22.581 69.6373 21.8267C69.2537 21.0682 69.062 20.1754 69.062 19.1484C69.062 18.1385 69.2537 17.2521 69.6373 16.4893C70.025 15.7223 70.5662 15.1257 71.2608 14.6996C71.9554 14.2692 72.7715 14.054 73.709 14.054C74.3141 14.054 74.8851 14.152 75.4221 14.348C75.9632 14.5398 76.4405 14.8381 76.8539 15.2429C77.2715 15.6477 77.5996 16.1634 77.8382 16.7898C78.0769 17.4119 78.1962 18.1534 78.1962 19.0142V19.7237H70.1486V18.1641H75.9782C75.9739 17.7209 75.878 17.3267 75.6905 16.9815C75.503 16.6321 75.2409 16.3572 74.9043 16.157C74.5719 15.9567 74.1841 15.8565 73.7409 15.8565C73.2679 15.8565 72.8525 15.9716 72.4945 16.2017C72.1365 16.4276 71.8574 16.7259 71.6571 17.0966C71.4611 17.4631 71.361 17.8658 71.3567 18.3047V19.6662C71.3567 20.2372 71.4611 20.7273 71.6699 21.1364C71.8787 21.5412 72.1706 21.8523 72.5456 22.0696C72.9206 22.2827 73.3596 22.3892 73.8624 22.3892C74.199 22.3892 74.5037 22.3423 74.7765 22.2486C75.0492 22.1506 75.2857 22.0078 75.486 21.8203C75.6863 21.6328 75.8375 21.4006 75.9398 21.1236L78.1003 21.3665C77.964 21.9375 77.704 22.4361 77.3205 22.8622C76.9412 23.2841 76.4554 23.6122 75.8631 23.8466C75.2708 24.0767 74.5932 24.1918 73.8304 24.1918ZM84.7209 24V10.9091H93.2351V12.897H87.0923V16.451H92.794V18.4389H87.0923V22.0121H93.2862V24H84.7209ZM97.8661 10.9091V24H95.5522V10.9091H97.8661ZM100.246 24V14.1818H102.559V24H100.246ZM101.409 12.7884C101.042 12.7884 100.727 12.6669 100.463 12.424C100.199 12.1768 100.067 11.8807 100.067 11.5355C100.067 11.1861 100.199 10.8899 100.463 10.647C100.727 10.3999 101.042 10.2763 101.409 10.2763C101.78 10.2763 102.095 10.3999 102.355 10.647C102.619 10.8899 102.751 11.1861 102.751 11.5355C102.751 11.8807 102.619 12.1768 102.355 12.424C102.095 12.6669 101.78 12.7884 101.409 12.7884ZM104.939 24V14.1818H107.151V15.8501H107.266C107.47 15.2876 107.809 14.8487 108.282 14.5334C108.755 14.2138 109.32 14.054 109.976 14.054C110.641 14.054 111.201 14.2159 111.657 14.5398C112.117 14.8594 112.441 15.2962 112.629 15.8501H112.731C112.948 15.3047 113.315 14.87 113.83 14.5462C114.35 14.218 114.966 14.054 115.678 14.054C116.581 14.054 117.318 14.3395 117.889 14.9105C118.46 15.4815 118.746 16.3146 118.746 17.4098V24H116.425V17.7678C116.425 17.1584 116.263 16.7131 115.94 16.4318C115.616 16.1463 115.219 16.0036 114.751 16.0036C114.192 16.0036 113.756 16.1783 113.44 16.5277C113.129 16.8729 112.974 17.3224 112.974 17.8764V24H110.705V17.6719C110.705 17.1648 110.551 16.7599 110.244 16.4574C109.942 16.1548 109.545 16.0036 109.055 16.0036C108.723 16.0036 108.42 16.0888 108.148 16.2592C107.875 16.4254 107.658 16.6619 107.496 16.9688C107.334 17.2713 107.253 17.625 107.253 18.0298V24H104.939ZM121.093 24V14.1818H123.407V24H121.093ZM122.257 12.7884C121.89 12.7884 121.575 12.6669 121.311 12.424C121.046 12.1768 120.914 11.8807 120.914 11.5355C120.914 11.1861 121.046 10.8899 121.311 10.647C121.575 10.3999 121.89 10.2763 122.257 10.2763C122.627 10.2763 122.943 10.3999 123.203 10.647C123.467 10.8899 123.599 11.1861 123.599 11.5355C123.599 11.8807 123.467 12.1768 123.203 12.424C122.943 12.6669 122.627 12.7884 122.257 12.7884ZM128.1 18.2472V24H125.787V14.1818H127.998V15.8501H128.113C128.339 15.3004 128.699 14.8636 129.194 14.5398C129.692 14.2159 130.308 14.054 131.041 14.054C131.718 14.054 132.309 14.1989 132.811 14.4886C133.319 14.7784 133.711 15.1982 133.988 15.7479C134.269 16.2976 134.407 16.9645 134.403 17.7486V24H132.089V18.1065C132.089 17.4503 131.919 16.9368 131.578 16.5661C131.241 16.1953 130.775 16.0099 130.178 16.0099C129.773 16.0099 129.413 16.0994 129.098 16.2784C128.787 16.4531 128.542 16.7067 128.363 17.0391C128.188 17.3714 128.1 17.7741 128.1 18.2472ZM139.581 24.1982C138.958 24.1982 138.398 24.0874 137.9 23.8658C137.405 23.6399 137.013 23.3075 136.723 22.8686C136.438 22.4297 136.295 21.8885 136.295 21.245C136.295 20.6911 136.397 20.233 136.602 19.8707C136.806 19.5085 137.086 19.2188 137.439 19.0014C137.793 18.7841 138.191 18.62 138.635 18.5092C139.082 18.3942 139.544 18.3111 140.022 18.2599C140.597 18.2003 141.064 18.147 141.422 18.1001C141.779 18.049 142.039 17.9723 142.201 17.87C142.368 17.7635 142.451 17.5994 142.451 17.3778V17.3395C142.451 16.858 142.308 16.4851 142.022 16.2209C141.737 15.9567 141.326 15.8246 140.789 15.8246C140.222 15.8246 139.772 15.9482 139.44 16.1953C139.112 16.4425 138.89 16.7344 138.775 17.071L136.615 16.7642C136.785 16.1676 137.066 15.669 137.458 15.2685C137.85 14.8636 138.33 14.5611 138.897 14.3608C139.463 14.1562 140.09 14.054 140.776 14.054C141.249 14.054 141.72 14.1094 142.189 14.2202C142.657 14.331 143.086 14.5142 143.473 14.7699C143.861 15.0213 144.172 15.3643 144.407 15.799C144.645 16.2337 144.765 16.777 144.765 17.429V24H142.54V22.6513H142.463C142.323 22.924 142.125 23.1797 141.869 23.4183C141.618 23.6527 141.3 23.8423 140.917 23.9872C140.537 24.1278 140.092 24.1982 139.581 24.1982ZM140.181 22.4979C140.646 22.4979 141.049 22.4062 141.39 22.223C141.73 22.0355 141.993 21.7884 142.176 21.4815C142.363 21.1747 142.457 20.8402 142.457 20.478V19.321C142.385 19.3807 142.261 19.4361 142.086 19.4872C141.916 19.5384 141.724 19.5831 141.511 19.6214C141.298 19.6598 141.087 19.6939 140.878 19.7237C140.669 19.7536 140.488 19.7791 140.335 19.8004C139.99 19.8473 139.681 19.924 139.408 20.0305C139.135 20.1371 138.92 20.2862 138.762 20.478C138.605 20.6655 138.526 20.9084 138.526 21.2067C138.526 21.6328 138.681 21.9545 138.993 22.1719C139.304 22.3892 139.7 22.4979 140.181 22.4979ZM151.994 14.1818V15.9716H146.35V14.1818H151.994ZM147.743 11.8295H150.057V21.0469C150.057 21.358 150.104 21.5966 150.198 21.7628C150.296 21.9247 150.424 22.0355 150.581 22.0952C150.739 22.1548 150.914 22.1847 151.105 22.1847C151.25 22.1847 151.382 22.174 151.502 22.1527C151.625 22.1314 151.719 22.1122 151.783 22.0952L152.173 23.9041C152.049 23.9467 151.873 23.9936 151.642 24.0447C151.417 24.0959 151.14 24.1257 150.811 24.1342C150.232 24.1513 149.71 24.0639 149.245 23.8722C148.781 23.6761 148.412 23.3736 148.14 22.9645C147.871 22.5554 147.739 22.044 147.743 21.4304V11.8295ZM153.929 24V14.1818H156.243V24H153.929ZM155.093 12.7884C154.726 12.7884 154.411 12.6669 154.146 12.424C153.882 12.1768 153.75 11.8807 153.75 11.5355C153.75 11.1861 153.882 10.8899 154.146 10.647C154.411 10.3999 154.726 10.2763 155.093 10.2763C155.463 10.2763 155.779 10.3999 156.039 10.647C156.303 10.8899 156.435 11.1861 156.435 11.5355C156.435 11.8807 156.303 12.1768 156.039 12.424C155.779 12.6669 155.463 12.7884 155.093 12.7884ZM162.905 24.1918C161.946 24.1918 161.115 23.9808 160.412 23.5589C159.709 23.1371 159.164 22.5469 158.776 21.7884C158.392 21.0298 158.201 20.1435 158.201 19.1293C158.201 18.1151 158.392 17.2266 158.776 16.4638C159.164 15.701 159.709 15.1087 160.412 14.6868C161.115 14.2649 161.946 14.054 162.905 14.054C163.864 14.054 164.695 14.2649 165.398 14.6868C166.101 15.1087 166.645 15.701 167.028 16.4638C167.416 17.2266 167.61 18.1151 167.61 19.1293C167.61 20.1435 167.416 21.0298 167.028 21.7884C166.645 22.5469 166.101 23.1371 165.398 23.5589C164.695 23.9808 163.864 24.1918 162.905 24.1918ZM162.918 22.3381C163.438 22.3381 163.873 22.1953 164.222 21.9098C164.571 21.62 164.831 21.2322 165.002 20.7464C165.176 20.2607 165.264 19.7195 165.264 19.1229C165.264 18.522 165.176 17.9787 165.002 17.4929C164.831 17.0028 164.571 16.6129 164.222 16.3232C163.873 16.0334 163.438 15.8885 162.918 15.8885C162.385 15.8885 161.942 16.0334 161.588 16.3232C161.239 16.6129 160.977 17.0028 160.802 17.4929C160.632 17.9787 160.547 18.522 160.547 19.1229C160.547 19.7195 160.632 20.2607 160.802 20.7464C160.977 21.2322 161.239 21.62 161.588 21.9098C161.942 22.1953 162.385 22.3381 162.918 22.3381ZM171.888 18.2472V24H169.574V14.1818H171.785V15.8501H171.9C172.126 15.3004 172.486 14.8636 172.981 14.5398C173.479 14.2159 174.095 14.054 174.828 14.054C175.506 14.054 176.096 14.1989 176.599 14.4886C177.106 14.7784 177.498 15.1982 177.775 15.7479C178.056 16.2976 178.194 16.9645 178.19 17.7486V24H175.876V18.1065C175.876 17.4503 175.706 16.9368 175.365 16.5661C175.028 16.1953 174.562 16.0099 173.965 16.0099C173.56 16.0099 173.2 16.0994 172.885 16.2784C172.574 16.4531 172.329 16.7067 172.15 17.0391C171.975 17.3714 171.888 17.7741 171.888 18.2472Z" fill="white"/>
</svg>
